<svg xmlns="http://www.w3.org/2000/svg" viewBox="0 0 457 457">
<style>
  .floor-boundary { fill: #f5f5f5; stroke: #333; stroke-width: 2; }
  .space { stroke: #333; stroke-width: 1; opacity: 0.9; }
  .space-label { font-family: Arial, sans-serif; font-size: 8px; fill: #333; }
  .vertical { stroke-dasharray: 4,2; }
</style>
<polygon class="floor-boundary" points="20.0,436.9 436.9,436.9 436.9,20.0 20.0,20.0" />
<rect class="space vertical" x="201.4" y="202.9" width="24.0" height="51.0" fill="#FFC107" />
<text class="space-label" x="213.4" y="228.4" text-anchor="middle" dominant-baseline="middle">Passenger Eleva</text>
<rect class="space vertical" x="228.4" y="202.9" width="24.0" height="51.0" fill="#FFC107" />
<text class="space-label" x="240.4" y="228.4" text-anchor="middle" dominant-baseline="middle">Passenger Eleva</text>
<rect class="space vertical" x="169.4" y="199.4" width="29.1" height="58.2" fill="#FFC107" />
<text class="space-label" x="183.9" y="228.4" text-anchor="middle" dominant-baseline="middle">Stair 1</text>
<rect class="space vertical" x="255.4" y="199.4" width="29.1" height="58.2" fill="#FFC107" />
<text class="space-label" x="270.0" y="228.4" text-anchor="middle" dominant-baseline="middle">Stair 2</text>
<rect class="space " x="23.0" y="23.0" width="74.3" height="74.3" fill="#FFC107" />
<text class="space-label" x="60.1" y="60.1" text-anchor="middle" dominant-baseline="middle">Elevator Lobby</text>
<rect class="space " x="23.0" y="331.9" width="52.2" height="102.0" fill="#4CAF50" />
<text class="space-label" x="49.1" y="382.9" text-anchor="middle" dominant-baseline="middle">Studio + 1 Bath</text>
<rect class="space " x="86.2" y="331.9" width="52.2" height="102.0" fill="#4CAF50" />
<text class="space-label" x="112.3" y="382.9" text-anchor="middle" dominant-baseline="middle">Studio + 1 Bath</text>
<rect class="space " x="149.4" y="331.9" width="52.2" height="102.0" fill="#4CAF50" />
<text class="space-label" x="175.5" y="382.9" text-anchor="middle" dominant-baseline="middle">Studio + 1 Bath</text>
<rect class="space " x="212.6" y="331.9" width="52.2" height="102.0" fill="#4CAF50" />
<text class="space-label" x="238.7" y="382.9" text-anchor="middle" dominant-baseline="middle">Studio + 1 Bath</text>
<rect class="space " x="275.8" y="331.9" width="52.2" height="102.0" fill="#4CAF50" />
<text class="space-label" x="301.9" y="382.9" text-anchor="middle" dominant-baseline="middle">Studio + 1 Bath</text>
<rect class="space " x="339.0" y="331.9" width="52.2" height="102.0" fill="#4CAF50" />
<text class="space-label" x="365.1" y="382.9" text-anchor="middle" dominant-baseline="middle">Studio + 1 Bath</text>
<rect class="space " x="23.0" y="218.9" width="52.2" height="102.0" fill="#4CAF50" />
<text class="space-label" x="49.1" y="269.9" text-anchor="middle" dominant-baseline="middle">Studio + 1 Bath</text>
<rect class="space " x="86.2" y="221.3" width="132.9" height="99.6" fill="#4CAF50" />
<text class="space-label" x="152.7" y="271.1" text-anchor="middle" dominant-baseline="middle">3 Bedroom + 2 B</text>
<rect class="space " x="230.1" y="221.3" width="132.9" height="99.6" fill="#4CAF50" />
<text class="space-label" x="296.6" y="271.1" text-anchor="middle" dominant-baseline="middle">3 Bedroom + 2 B</text>
<rect class="space " x="23.0" y="108.3" width="132.9" height="99.6" fill="#4CAF50" />
<text class="space-label" x="89.4" y="158.1" text-anchor="middle" dominant-baseline="middle">3 Bedroom + 2 B</text>
<rect class="space " x="166.9" y="108.3" width="132.9" height="99.6" fill="#4CAF50" />
<text class="space-label" x="233.4" y="158.1" text-anchor="middle" dominant-baseline="middle">3 Bedroom + 2 B</text>
<rect class="space " x="193.5" y="28.7" width="68.5" height="68.5" fill="#2196F3" />
<text class="space-label" x="227.8" y="63.0" text-anchor="middle" dominant-baseline="middle">Common Laundry </text>
<rect class="space " x="273.1" y="59.3" width="37.9" height="37.9" fill="#2196F3" />
<text class="space-label" x="292.0" y="78.3" text-anchor="middle" dominant-baseline="middle">Storage - Janit</text>
<rect class="space " x="322.0" y="59.3" width="37.9" height="37.9" fill="#2196F3" />
<text class="space-label" x="341.0" y="78.3" text-anchor="middle" dominant-baseline="middle">Storage - Janit</text>
<rect class="space " x="371.0" y="59.3" width="37.9" height="37.9" fill="#2196F3" />
<text class="space-label" x="390.0" y="78.3" text-anchor="middle" dominant-baseline="middle">Storage - Janit</text>
<rect class="space " x="108.3" y="23.0" width="74.3" height="74.3" fill="#2196F3" />
<text class="space-label" x="145.4" y="60.1" text-anchor="middle" dominant-baseline="middle">Trash Room (Typ</text>
<text x="20" y="15" font-family="Arial" font-size="14" font-weight="bold">Floor +5 - RESIDENTIAL_TYPICAL</text>
</svg>