<svg xmlns="http://www.w3.org/2000/svg" viewBox="0 0 457 457">
<style>
  .floor-boundary { fill: #f5f5f5; stroke: #333; stroke-width: 2; }
  .space { stroke: #333; stroke-width: 1; opacity: 0.9; }
  .space-label { font-family: Arial, sans-serif; font-size: 8px; fill: #333; }
  .vertical { stroke-dasharray: 4,2; }
</style>
<polygon class="floor-boundary" points="20.0,436.9 436.9,436.9 436.9,20.0 20.0,20.0" />
<rect class="space vertical" x="201.4" y="202.9" width="24.0" height="51.0" fill="#FFC107" />
<text class="space-label" x="213.4" y="228.4" text-anchor="middle" dominant-baseline="middle">Passenger Eleva</text>
<rect class="space vertical" x="228.4" y="202.9" width="24.0" height="51.0" fill="#FFC107" />
<text class="space-label" x="240.4" y="228.4" text-anchor="middle" dominant-baseline="middle">Passenger Eleva</text>
<rect class="space vertical" x="169.4" y="199.4" width="29.1" height="58.2" fill="#FFC107" />
<text class="space-label" x="183.9" y="228.4" text-anchor="middle" dominant-baseline="middle">Stair 1</text>
<rect class="space vertical" x="255.4" y="199.4" width="29.1" height="58.2" fill="#FFC107" />
<text class="space-label" x="270.0" y="228.4" text-anchor="middle" dominant-baseline="middle">Stair 2</text>
<rect class="space " x="108.7" y="387.7" width="41.6" height="41.6" fill="#FF5722" />
<text class="space-label" x="129.4" y="408.4" text-anchor="middle" dominant-baseline="middle">IDF Closets</text>
<rect class="space " x="151.2" y="394.2" width="34.5" height="34.5" fill="#9E9E9E" />
<text class="space-label" x="168.4" y="411.4" text-anchor="middle" dominant-baseline="middle">Fan Room/AHU</text>
<rect class="space " x="26.2" y="350.2" width="80.6" height="80.6" fill="#9E9E9E" />
<text class="space-label" x="66.4" y="390.4" text-anchor="middle" dominant-baseline="middle">HVAC Equipment </text>
<rect class="space vertical" x="190.5" y="266.5" width="33.3" height="33.3" fill="#9E9E9E" />
<text class="space-label" x="207.1" y="283.2" text-anchor="middle" dominant-baseline="middle">Mech Shaft - Ve</text>
<rect class="space vertical" x="226.7" y="266.5" width="23.2" height="23.2" fill="#03A9F4" />
<text class="space-label" x="238.4" y="278.1" text-anchor="middle" dominant-baseline="middle">Plumbing Shaft</text>
<rect class="space vertical" x="253.0" y="266.5" width="13.4" height="13.4" fill="#F44336" />
<text class="space-label" x="259.7" y="273.2" text-anchor="middle" dominant-baseline="middle">Sprinkler Riser</text>
<text x="20" y="15" font-family="Arial" font-size="14" font-weight="bold">Floor +6 - AMENITY</text>
</svg>