<svg xmlns="http://www.w3.org/2000/svg" viewBox="0 0 457 457">
<style>
  .floor-boundary { fill: #f5f5f5; stroke: #333; stroke-width: 2; }
  .space { stroke: #333; stroke-width: 1; opacity: 0.9; }
  .space-label { font-family: Arial, sans-serif; font-size: 8px; fill: #333; }
  .vertical { stroke-dasharray: 4,2; }
</style>
<polygon class="floor-boundary" points="20.0,436.9 436.9,436.9 436.9,20.0 20.0,20.0" />
<rect class="space vertical" x="201.4" y="202.9" width="24.0" height="51.0" fill="#FFC107" />
<text class="space-label" x="213.4" y="228.4" text-anchor="middle" dominant-baseline="middle">Passenger Eleva</text>
<rect class="space vertical" x="228.4" y="202.9" width="24.0" height="51.0" fill="#FFC107" />
<text class="space-label" x="240.4" y="228.4" text-anchor="middle" dominant-baseline="middle">Passenger Eleva</text>
<rect class="space vertical" x="169.4" y="199.4" width="29.1" height="58.2" fill="#FFC107" />
<text class="space-label" x="183.9" y="228.4" text-anchor="middle" dominant-baseline="middle">Stair 1</text>
<rect class="space vertical" x="255.4" y="199.4" width="29.1" height="58.2" fill="#FFC107" />
<text class="space-label" x="270.0" y="228.4" text-anchor="middle" dominant-baseline="middle">Stair 2</text>
<rect class="space " x="114.4" y="330.4" width="52.2" height="102.0" fill="#4CAF50" />
<text class="space-label" x="140.5" y="381.4" text-anchor="middle" dominant-baseline="middle">Studio + 1 Bath</text>
<rect class="space " x="204.4" y="75.4" width="52.2" height="102.0" fill="#4CAF50" />
<text class="space-label" x="230.5" y="126.4" text-anchor="middle" dominant-baseline="middle">Studio + 1 Bath</text>
<rect class="space " x="24.4" y="330.4" width="52.2" height="102.0" fill="#4CAF50" />
<text class="space-label" x="50.5" y="381.4" text-anchor="middle" dominant-baseline="middle">Studio + 1 Bath</text>
<rect class="space " x="144.4" y="126.4" width="52.2" height="102.0" fill="#4CAF50" />
<text class="space-label" x="170.5" y="177.4" text-anchor="middle" dominant-baseline="middle">Studio + 1 Bath</text>
<rect class="space " x="144.4" y="228.4" width="52.2" height="102.0" fill="#4CAF50" />
<text class="space-label" x="170.5" y="279.4" text-anchor="middle" dominant-baseline="middle">Studio + 1 Bath</text>
<rect class="space " x="84.4" y="228.4" width="52.2" height="102.0" fill="#4CAF50" />
<text class="space-label" x="110.5" y="279.4" text-anchor="middle" dominant-baseline="middle">Studio + 1 Bath</text>
<rect class="space " x="174.4" y="330.4" width="52.2" height="102.0" fill="#4CAF50" />
<text class="space-label" x="200.5" y="381.4" text-anchor="middle" dominant-baseline="middle">Studio + 1 Bath</text>
<rect class="space " x="123.4" y="70.6" width="71.7" height="91.8" fill="#4CAF50" />
<text class="space-label" x="159.3" y="116.5" text-anchor="middle" dominant-baseline="middle">1 Bedroom + 1 B</text>
<rect class="space " x="255.4" y="115.6" width="71.7" height="91.8" fill="#4CAF50" />
<text class="space-label" x="291.3" y="161.5" text-anchor="middle" dominant-baseline="middle">1 Bedroom + 1 B</text>
<rect class="space " x="255.4" y="295.6" width="71.7" height="91.8" fill="#4CAF50" />
<text class="space-label" x="291.3" y="341.5" text-anchor="middle" dominant-baseline="middle">1 Bedroom + 1 B</text>
<rect class="space " x="354.4" y="295.6" width="71.7" height="91.8" fill="#4CAF50" />
<text class="space-label" x="390.3" y="341.5" text-anchor="middle" dominant-baseline="middle">1 Bedroom + 1 B</text>
<rect class="space " x="24.4" y="70.6" width="71.7" height="91.8" fill="#4CAF50" />
<text class="space-label" x="60.3" y="116.5" text-anchor="middle" dominant-baseline="middle">1 Bedroom + 1 B</text>
<rect class="space " x="24.4" y="205.6" width="71.7" height="91.8" fill="#4CAF50" />
<text class="space-label" x="60.3" y="251.5" text-anchor="middle" dominant-baseline="middle">1 Bedroom + 1 B</text>
<rect class="space " x="354.4" y="160.6" width="71.7" height="91.8" fill="#4CAF50" />
<text class="space-label" x="390.3" y="206.5" text-anchor="middle" dominant-baseline="middle">1 Bedroom + 1 B</text>
<rect class="space " x="23.0" y="238.2" width="119.7" height="86.7" fill="#4CAF50" />
<text class="space-label" x="82.9" y="281.6" text-anchor="middle" dominant-baseline="middle">2 Bedroom + 2 B</text>
<rect class="space " x="138.4" y="261.7" width="119.7" height="86.7" fill="#4CAF50" />
<text class="space-label" x="198.3" y="305.1" text-anchor="middle" dominant-baseline="middle">2 Bedroom + 2 B</text>
<rect class="space " x="132.4" y="178.0" width="108.0" height="86.4" fill="#4CAF50" />
<text class="space-label" x="186.4" y="221.2" text-anchor="middle" dominant-baseline="middle">2 Bedroom + 1 B</text>
<rect class="space " x="186.4" y="136.0" width="108.0" height="86.4" fill="#4CAF50" />
<text class="space-label" x="240.4" y="179.2" text-anchor="middle" dominant-baseline="middle">2 Bedroom + 1 B</text>
<rect class="space " x="240.4" y="220.0" width="108.0" height="86.4" fill="#4CAF50" />
<text class="space-label" x="294.4" y="263.2" text-anchor="middle" dominant-baseline="middle">2 Bedroom + 1 B</text>
<rect class="space " x="23.0" y="131.8" width="119.1" height="95.4" fill="#4CAF50" />
<text class="space-label" x="82.6" y="179.5" text-anchor="middle" dominant-baseline="middle">2 Bedroom + 2 B</text>
<rect class="space " x="314.8" y="119.1" width="119.1" height="95.4" fill="#4CAF50" />
<text class="space-label" x="374.3" y="166.8" text-anchor="middle" dominant-baseline="middle">2 Bedroom + 2 B</text>
<rect class="space " x="23.0" y="23.0" width="130.5" height="97.8" fill="#4CAF50" />
<text class="space-label" x="88.2" y="71.9" text-anchor="middle" dominant-baseline="middle">3 Bedroom + 2 B</text>
<rect class="space " x="166.9" y="336.1" width="130.5" height="97.8" fill="#4CAF50" />
<text class="space-label" x="232.2" y="385.0" text-anchor="middle" dominant-baseline="middle">3 Bedroom + 2 B</text>
<rect class="space " x="303.4" y="225.5" width="130.5" height="97.8" fill="#4CAF50" />
<text class="space-label" x="368.6" y="274.4" text-anchor="middle" dominant-baseline="middle">3 Bedroom + 2 B</text>
<rect class="space " x="159.5" y="23.0" width="130.5" height="97.8" fill="#4CAF50" />
<text class="space-label" x="224.7" y="71.9" text-anchor="middle" dominant-baseline="middle">3 Bedroom + 2 B</text>
<rect class="space " x="23.0" y="334.3" width="132.9" height="99.6" fill="#4CAF50" />
<text class="space-label" x="89.4" y="384.1" text-anchor="middle" dominant-baseline="middle">3 Bedroom + 2 B</text>
<rect class="space " x="301.0" y="334.3" width="132.9" height="99.6" fill="#4CAF50" />
<text class="space-label" x="367.4" y="384.1" text-anchor="middle" dominant-baseline="middle">3 Bedroom + 2 B</text>
<rect class="space " x="301.0" y="23.0" width="132.9" height="99.6" fill="#4CAF50" />
<text class="space-label" x="367.4" y="72.8" text-anchor="middle" dominant-baseline="middle">3 Bedroom + 2 B</text>
<rect class="space " x="293.5" y="181.0" width="68.5" height="68.5" fill="#2196F3" />
<text class="space-label" x="327.8" y="215.3" text-anchor="middle" dominant-baseline="middle">Common Laundry </text>
<rect class="space " x="293.5" y="94.5" width="75.5" height="75.5" fill="#2196F3" />
<text class="space-label" x="331.3" y="132.3" text-anchor="middle" dominant-baseline="middle">Trash Room (Typ</text>
<rect class="space vertical" x="190.5" y="266.5" width="33.3" height="33.3" fill="#9E9E9E" />
<text class="space-label" x="207.1" y="283.2" text-anchor="middle" dominant-baseline="middle">Mech Shaft - Ve</text>
<rect class="space vertical" x="226.7" y="266.5" width="23.2" height="23.2" fill="#03A9F4" />
<text class="space-label" x="238.4" y="278.1" text-anchor="middle" dominant-baseline="middle">Plumbing Shaft</text>
<rect class="space vertical" x="253.0" y="266.5" width="13.4" height="13.4" fill="#F44336" />
<text class="space-label" x="259.7" y="273.2" text-anchor="middle" dominant-baseline="middle">Sprinkler Riser</text>
<text x="20" y="15" font-family="Arial" font-size="14" font-weight="bold">Floor +4 - RESIDENTIAL_TYPICAL</text>
</svg>