<svg xmlns="http://www.w3.org/2000/svg" viewBox="0 0 457 457">
<style>
  .floor-boundary { fill: #f5f5f5; stroke: #333; stroke-width: 2; }
  .space { stroke: #333; stroke-width: 1; opacity: 0.9; }
  .space-label { font-family: Arial, sans-serif; font-size: 8px; fill: #333; }
  .vertical { stroke-dasharray: 4,2; }
</style>
<polygon class="floor-boundary" points="20.0,436.9 436.9,436.9 436.9,20.0 20.0,20.0" />
<rect class="space vertical" x="201.4" y="202.9" width="24.0" height="51.0" fill="#FFC107" />
<text class="space-label" x="213.4" y="228.4" text-anchor="middle" dominant-baseline="middle">Passenger Eleva</text>
<rect class="space vertical" x="228.4" y="202.9" width="24.0" height="51.0" fill="#FFC107" />
<text class="space-label" x="240.4" y="228.4" text-anchor="middle" dominant-baseline="middle">Passenger Eleva</text>
<rect class="space vertical" x="169.4" y="199.4" width="29.1" height="58.2" fill="#FFC107" />
<text class="space-label" x="183.9" y="228.4" text-anchor="middle" dominant-baseline="middle">Stair 1</text>
<rect class="space vertical" x="255.4" y="199.4" width="29.1" height="58.2" fill="#FFC107" />
<text class="space-label" x="270.0" y="228.4" text-anchor="middle" dominant-baseline="middle">Stair 2</text>
<rect class="space " x="71.5" y="392.5" width="37.9" height="37.9" fill="#2196F3" />
<text class="space-label" x="90.4" y="411.4" text-anchor="middle" dominant-baseline="middle">Storage - Janit</text>
<rect class="space " x="110.5" y="392.5" width="37.9" height="37.9" fill="#2196F3" />
<text class="space-label" x="129.4" y="411.4" text-anchor="middle" dominant-baseline="middle">Storage - Janit</text>
<rect class="space " x="149.5" y="392.5" width="37.9" height="37.9" fill="#2196F3" />
<text class="space-label" x="168.4" y="411.4" text-anchor="middle" dominant-baseline="middle">Storage - Janit</text>
<rect class="space " x="188.5" y="392.5" width="37.9" height="37.9" fill="#2196F3" />
<text class="space-label" x="207.4" y="411.4" text-anchor="middle" dominant-baseline="middle">Storage - Janit</text>
<rect class="space " x="27.7" y="387.7" width="41.6" height="41.6" fill="#FF5722" />
<text class="space-label" x="48.4" y="408.4" text-anchor="middle" dominant-baseline="middle">IDF Closets</text>
<rect class="space " x="226.8" y="394.8" width="33.3" height="33.3" fill="#9E9E9E" />
<text class="space-label" x="243.4" y="411.4" text-anchor="middle" dominant-baseline="middle">Mech Shaft - Ve</text>
<rect class="space " x="261.8" y="405.8" width="23.2" height="23.2" fill="#03A9F4" />
<text class="space-label" x="273.4" y="417.4" text-anchor="middle" dominant-baseline="middle">Plumbing Shaft</text>
<rect class="space " x="287.7" y="416.7" width="13.4" height="13.4" fill="#F44336" />
<text class="space-label" x="294.4" y="423.4" text-anchor="middle" dominant-baseline="middle">Sprinkler Riser</text>
<text x="20" y="15" font-family="Arial" font-size="14" font-weight="bold">Floor +1 - PARKING_PODIUM</text>
</svg>