<svg xmlns="http://www.w3.org/2000/svg" viewBox="0 0 457 457">
<style>
  .floor-boundary { fill: #f5f5f5; stroke: #333; stroke-width: 2; }
  .space { stroke: #333; stroke-width: 1; opacity: 0.9; }
  .space-label { font-family: Arial, sans-serif; font-size: 8px; fill: #333; }
  .vertical { stroke-dasharray: 4,2; }
</style>
<polygon class="floor-boundary" points="20.0,436.9 436.9,436.9 436.9,20.0 20.0,20.0" />
<rect class="space vertical" x="201.4" y="202.9" width="24.0" height="51.0" fill="#FFC107" />
<text class="space-label" x="213.4" y="228.4" text-anchor="middle" dominant-baseline="middle">Passenger Eleva</text>
<rect class="space vertical" x="228.4" y="202.9" width="24.0" height="51.0" fill="#FFC107" />
<text class="space-label" x="240.4" y="228.4" text-anchor="middle" dominant-baseline="middle">Passenger Eleva</text>
<rect class="space vertical" x="169.4" y="199.4" width="29.1" height="58.2" fill="#FFC107" />
<text class="space-label" x="183.9" y="228.4" text-anchor="middle" dominant-baseline="middle">Stair 1</text>
<rect class="space vertical" x="255.4" y="199.4" width="29.1" height="58.2" fill="#FFC107" />
<text class="space-label" x="270.0" y="228.4" text-anchor="middle" dominant-baseline="middle">Stair 2</text>
<rect class="space " x="353.3" y="264.9" width="77.5" height="77.5" fill="#FFC107" />
<text class="space-label" x="392.1" y="303.7" text-anchor="middle" dominant-baseline="middle">Elevator Lobby</text>
<rect class="space " x="204.3" y="358.7" width="48.2" height="48.2" fill="#2196F3" />
<text class="space-label" x="228.4" y="382.8" text-anchor="middle" dominant-baseline="middle">Entry Lobby</text>
<rect class="space " x="27.4" y="385.5" width="45.4" height="45.4" fill="#2196F3" />
<text class="space-label" x="50.1" y="408.2" text-anchor="middle" dominant-baseline="middle">Mail Room</text>
<rect class="space " x="75.4" y="310.9" width="120.0" height="120.0" fill="#2196F3" />
<text class="space-label" x="135.4" y="370.9" text-anchor="middle" dominant-baseline="middle">Bicycle Room</text>
<rect class="space " x="255.4" y="399.3" width="31.6" height="31.6" fill="#2196F3" />
<text class="space-label" x="271.2" y="415.1" text-anchor="middle" dominant-baseline="middle">Bicycle Repair </text>
<rect class="space " x="288.4" y="392.9" width="37.9" height="37.9" fill="#2196F3" />
<text class="space-label" x="307.4" y="411.9" text-anchor="middle" dominant-baseline="middle">Storage - Janit</text>
<rect class="space " x="327.4" y="389.5" width="41.4" height="41.4" fill="#2196F3" />
<text class="space-label" x="348.1" y="410.2" text-anchor="middle" dominant-baseline="middle">Recycling Room</text>
<rect class="space " x="369.4" y="381.5" width="49.4" height="49.4" fill="#2196F3" />
<text class="space-label" x="394.1" y="406.2" text-anchor="middle" dominant-baseline="middle">Compactor Room</text>
<rect class="space " x="393.2" y="343.7" width="37.7" height="37.7" fill="#2196F3" />
<text class="space-label" x="412.0" y="362.6" text-anchor="middle" dominant-baseline="middle">Compost Room</text>
<rect class="space " x="399.3" y="232.8" width="31.6" height="31.6" fill="#00BCD4" />
<text class="space-label" x="415.1" y="248.6" text-anchor="middle" dominant-baseline="middle">Leasing Office</text>
<rect class="space " x="399.3" y="199.8" width="31.6" height="31.6" fill="#00BCD4" />
<text class="space-label" x="415.1" y="215.6" text-anchor="middle" dominant-baseline="middle">Manager Office</text>
<rect class="space " x="195.4" y="407.6" width="23.2" height="23.2" fill="#00BCD4" />
<text class="space-label" x="207.1" y="419.3" text-anchor="middle" dominant-baseline="middle">CCTV/Security R</text>
<rect class="space " x="370.3" y="137.8" width="60.6" height="60.6" fill="#00BCD4" />
<text class="space-label" x="400.6" y="168.1" text-anchor="middle" dominant-baseline="middle">Staff Lockers &</text>
<rect class="space " x="396.0" y="100.6" width="34.9" height="34.9" fill="#00BCD4" />
<text class="space-label" x="413.5" y="118.0" text-anchor="middle" dominant-baseline="middle">Staff Restroom</text>
<rect class="space " x="365.4" y="33.9" width="65.5" height="65.5" fill="#E91E63" />
<text class="space-label" x="398.1" y="66.7" text-anchor="middle" dominant-baseline="middle">Bar/Cafe Nook</text>
<rect class="space " x="27.4" y="26.0" width="61.8" height="61.8" fill="#E91E63" />
<text class="space-label" x="58.4" y="56.9" text-anchor="middle" dominant-baseline="middle">Business Center</text>
<rect class="space " x="90.4" y="26.0" width="32.9" height="32.9" fill="#E91E63" />
<text class="space-label" x="106.9" y="42.4" text-anchor="middle" dominant-baseline="middle">Concierge Desk</text>
<rect class="space " x="123.4" y="26.0" width="65.5" height="65.5" fill="#E91E63" />
<text class="space-label" x="156.2" y="58.8" text-anchor="middle" dominant-baseline="middle">Dining Room</text>
<rect class="space " x="189.4" y="26.0" width="64.4" height="64.4" fill="#E91E63" />
<text class="space-label" x="221.6" y="58.2" text-anchor="middle" dominant-baseline="middle">Theater/Screeni</text>
<rect class="space vertical" x="190.5" y="266.5" width="33.3" height="33.3" fill="#9E9E9E" />
<text class="space-label" x="207.1" y="283.2" text-anchor="middle" dominant-baseline="middle">Mech Shaft - Ve</text>
<rect class="space vertical" x="226.7" y="266.5" width="23.2" height="23.2" fill="#03A9F4" />
<text class="space-label" x="238.4" y="278.1" text-anchor="middle" dominant-baseline="middle">Plumbing Shaft</text>
<rect class="space vertical" x="253.0" y="266.5" width="13.4" height="13.4" fill="#F44336" />
<text class="space-label" x="259.7" y="273.2" text-anchor="middle" dominant-baseline="middle">Sprinkler Riser</text>
<text x="20" y="15" font-family="Arial" font-size="14" font-weight="bold">Floor +0 - GROUND</text>
</svg>