<svg xmlns="http://www.w3.org/2000/svg" viewBox="0 0 457 457">
<style>
  .floor-boundary { fill: #f5f5f5; stroke: #333; stroke-width: 2; }
  .space { stroke: #333; stroke-width: 1; opacity: 0.9; }
  .space-label { font-family: Arial, sans-serif; font-size: 8px; fill: #333; }
  .vertical { stroke-dasharray: 4,2; }
</style>
<polygon class="floor-boundary" points="20.0,436.9 436.9,436.9 436.9,20.0 20.0,20.0" />
<rect class="space vertical" x="201.4" y="202.9" width="24.0" height="51.0" fill="#FFC107" />
<text class="space-label" x="213.4" y="228.4" text-anchor="middle" dominant-baseline="middle">Passenger Eleva</text>
<rect class="space vertical" x="228.4" y="202.9" width="24.0" height="51.0" fill="#FFC107" />
<text class="space-label" x="240.4" y="228.4" text-anchor="middle" dominant-baseline="middle">Passenger Eleva</text>
<rect class="space vertical" x="169.4" y="199.4" width="29.1" height="58.2" fill="#FFC107" />
<text class="space-label" x="183.9" y="228.4" text-anchor="middle" dominant-baseline="middle">Stair 1</text>
<rect class="space vertical" x="255.4" y="199.4" width="29.1" height="58.2" fill="#FFC107" />
<text class="space-label" x="270.0" y="228.4" text-anchor="middle" dominant-baseline="middle">Stair 2</text>
<rect class="space " x="24.4" y="135.7" width="119.7" height="86.7" fill="#4CAF50" />
<text class="space-label" x="84.3" y="179.1" text-anchor="middle" dominant-baseline="middle">2 Bedroom + 2 B</text>
<rect class="space " x="309.4" y="135.7" width="119.7" height="86.7" fill="#4CAF50" />
<text class="space-label" x="369.3" y="179.1" text-anchor="middle" dominant-baseline="middle">2 Bedroom + 2 B</text>
<rect class="space " x="159.4" y="334.6" width="130.5" height="97.8" fill="#4CAF50" />
<text class="space-label" x="224.7" y="383.5" text-anchor="middle" dominant-baseline="middle">3 Bedroom + 2 B</text>
<rect class="space " x="24.4" y="229.6" width="130.5" height="97.8" fill="#4CAF50" />
<text class="space-label" x="89.7" y="278.5" text-anchor="middle" dominant-baseline="middle">3 Bedroom + 2 B</text>
<rect class="space " x="159.4" y="34.6" width="130.5" height="97.8" fill="#4CAF50" />
<text class="space-label" x="224.7" y="83.5" text-anchor="middle" dominant-baseline="middle">3 Bedroom + 2 B</text>
<rect class="space " x="294.4" y="229.6" width="130.5" height="97.8" fill="#4CAF50" />
<text class="space-label" x="359.7" y="278.5" text-anchor="middle" dominant-baseline="middle">3 Bedroom + 2 B</text>
<rect class="space " x="24.4" y="332.8" width="132.9" height="99.6" fill="#4CAF50" />
<text class="space-label" x="90.9" y="382.6" text-anchor="middle" dominant-baseline="middle">3 Bedroom + 2 B</text>
<rect class="space " x="294.4" y="332.8" width="132.9" height="99.6" fill="#4CAF50" />
<text class="space-label" x="360.9" y="382.6" text-anchor="middle" dominant-baseline="middle">3 Bedroom + 2 B</text>
<rect class="space " x="24.4" y="32.8" width="132.9" height="99.6" fill="#4CAF50" />
<text class="space-label" x="90.9" y="82.6" text-anchor="middle" dominant-baseline="middle">3 Bedroom + 2 B</text>
<rect class="space " x="294.4" y="32.8" width="132.9" height="99.6" fill="#4CAF50" />
<text class="space-label" x="360.9" y="82.6" text-anchor="middle" dominant-baseline="middle">3 Bedroom + 2 B</text>
<rect class="space " x="204.4" y="154.5" width="37.9" height="37.9" fill="#2196F3" />
<text class="space-label" x="223.4" y="173.5" text-anchor="middle" dominant-baseline="middle">Storage - Janit</text>
<rect class="space vertical" x="190.5" y="266.5" width="33.3" height="33.3" fill="#9E9E9E" />
<text class="space-label" x="207.1" y="283.2" text-anchor="middle" dominant-baseline="middle">Mech Shaft - Ve</text>
<rect class="space vertical" x="226.7" y="266.5" width="23.2" height="23.2" fill="#03A9F4" />
<text class="space-label" x="238.4" y="278.1" text-anchor="middle" dominant-baseline="middle">Plumbing Shaft</text>
<rect class="space vertical" x="253.0" y="266.5" width="13.4" height="13.4" fill="#F44336" />
<text class="space-label" x="259.7" y="273.2" text-anchor="middle" dominant-baseline="middle">Sprinkler Riser</text>
<text x="20" y="15" font-family="Arial" font-size="14" font-weight="bold">Floor +2 - RESIDENTIAL_TYPICAL</text>
</svg>