<svg xmlns="http://www.w3.org/2000/svg" viewBox="0 0 457 457">
<style>
  .floor-boundary { fill: #f5f5f5; stroke: #333; stroke-width: 2; }
  .space { stroke: #333; stroke-width: 1; opacity: 0.9; }
  .space-label { font-family: Arial, sans-serif; font-size: 8px; fill: #333; }
  .vertical { stroke-dasharray: 4,2; }
</style>
<polygon class="floor-boundary" points="20.0,436.9 436.9,436.9 436.9,20.0 20.0,20.0" />
<rect class="space vertical" x="201.4" y="202.9" width="24.0" height="51.0" fill="#FFC107" />
<text class="space-label" x="213.4" y="228.4" text-anchor="middle" dominant-baseline="middle">Passenger Eleva</text>
<rect class="space vertical" x="228.4" y="202.9" width="24.0" height="51.0" fill="#FFC107" />
<text class="space-label" x="240.4" y="228.4" text-anchor="middle" dominant-baseline="middle">Passenger Eleva</text>
<rect class="space vertical" x="169.4" y="199.4" width="29.1" height="58.2" fill="#FFC107" />
<text class="space-label" x="183.9" y="228.4" text-anchor="middle" dominant-baseline="middle">Stair 1</text>
<rect class="space vertical" x="255.4" y="199.4" width="29.1" height="58.2" fill="#FFC107" />
<text class="space-label" x="270.0" y="228.4" text-anchor="middle" dominant-baseline="middle">Stair 2</text>
<rect class="space " x="386.1" y="153.6" width="44.8" height="44.8" fill="#2196F3" />
<text class="space-label" x="408.5" y="176.0" text-anchor="middle" dominant-baseline="middle">Storage - Gener</text>
<rect class="space " x="392.9" y="115.5" width="37.9" height="37.9" fill="#2196F3" />
<text class="space-label" x="411.9" y="134.5" text-anchor="middle" dominant-baseline="middle">Storage - Janit</text>
<rect class="space " x="392.9" y="76.5" width="37.9" height="37.9" fill="#2196F3" />
<text class="space-label" x="411.9" y="95.5" text-anchor="middle" dominant-baseline="middle">Storage - Janit</text>
<rect class="space " x="392.9" y="37.5" width="37.9" height="37.9" fill="#2196F3" />
<text class="space-label" x="411.9" y="56.5" text-anchor="middle" dominant-baseline="middle">Storage - Janit</text>
<rect class="space " x="27.4" y="26.0" width="37.9" height="37.9" fill="#2196F3" />
<text class="space-label" x="46.4" y="45.0" text-anchor="middle" dominant-baseline="middle">Storage - Janit</text>
<rect class="space " x="27.4" y="389.3" width="41.6" height="41.6" fill="#FF5722" />
<text class="space-label" x="48.2" y="410.1" text-anchor="middle" dominant-baseline="middle">IDF Closets</text>
<rect class="space " x="69.4" y="377.2" width="53.7" height="53.7" fill="#FF9800" />
<text class="space-label" x="96.3" y="404.0" text-anchor="middle" dominant-baseline="middle">Main Electrical</text>
<rect class="space " x="123.4" y="385.3" width="45.6" height="45.6" fill="#FF9800" />
<text class="space-label" x="146.2" y="408.1" text-anchor="middle" dominant-baseline="middle">Emergency Inver</text>
<rect class="space " x="171.4" y="374.7" width="56.2" height="56.2" fill="#FF9800" />
<text class="space-label" x="199.5" y="402.8" text-anchor="middle" dominant-baseline="middle">Solar Battery/U</text>
<rect class="space " x="228.4" y="397.6" width="33.3" height="33.3" fill="#9E9E9E" />
<text class="space-label" x="245.1" y="414.2" text-anchor="middle" dominant-baseline="middle">Mech Shaft - Ve</text>
<rect class="space " x="264.4" y="392.7" width="38.2" height="38.2" fill="#03A9F4" />
<text class="space-label" x="283.5" y="411.8" text-anchor="middle" dominant-baseline="middle">Domestic Water </text>
<rect class="space " x="303.4" y="326.9" width="104.0" height="104.0" fill="#03A9F4" />
<text class="space-label" x="355.4" y="378.9" text-anchor="middle" dominant-baseline="middle">Cistern/Water T</text>
<rect class="space " x="403.2" y="296.8" width="27.7" height="27.7" fill="#03A9F4" />
<text class="space-label" x="417.1" y="310.6" text-anchor="middle" dominant-baseline="middle">Central Water H</text>
<rect class="space " x="406.0" y="269.5" width="24.9" height="24.9" fill="#03A9F4" />
<text class="space-label" x="418.4" y="282.0" text-anchor="middle" dominant-baseline="middle">Graywater Syste</text>
<rect class="space " x="407.6" y="406.2" width="23.2" height="23.2" fill="#03A9F4" />
<text class="space-label" x="419.3" y="417.8" text-anchor="middle" dominant-baseline="middle">Plumbing Shaft</text>
<rect class="space " x="409.7" y="384.2" width="21.2" height="21.2" fill="#03A9F4" />
<text class="space-label" x="420.3" y="394.8" text-anchor="middle" dominant-baseline="middle">Water Filtratio</text>
<rect class="space " x="399.8" y="236.4" width="31.0" height="31.0" fill="#03A9F4" />
<text class="space-label" x="415.4" y="251.9" text-anchor="middle" dominant-baseline="middle">Rain Water Harv</text>
<rect class="space " x="396.0" y="199.6" width="34.9" height="34.9" fill="#F44336" />
<text class="space-label" x="413.5" y="217.0" text-anchor="middle" dominant-baseline="middle">Fire Pump Room</text>
<rect class="space " x="417.5" y="368.0" width="13.4" height="13.4" fill="#F44336" />
<text class="space-label" x="424.2" y="374.7" text-anchor="middle" dominant-baseline="middle">Sprinkler Riser</text>
<text x="20" y="15" font-family="Arial" font-size="14" font-weight="bold">Floor -1 - PARKING_UNDERGROUND</text>
</svg>