<svg xmlns="http://www.w3.org/2000/svg" width="635.1298623452218" height="1025.227228121354" viewBox="0 0 635.1298623452218 1025.227228121354"><rect width="100%" height="100%" fill="#1a1a2e"/><path d="M 615.1298623452218 895.2689680253671 L 593.0592625039449 719.978342963185 L 448.3356231597083 426.8035568277287 L 492.1789300205777 395.4546565394687 L 327.803964501629 20 L 20 177.40995608311414 L 404.6908445021871 1005.2272281213541 Z" fill="none" stroke="#fff" stroke-width="2"/><polygon points="614.2470383515707,888.2573430228799 593.9420864975959,726.9899679656722 488.59175042004586,754.8066400444349 498.1839425462751,830.9904033139142" fill="#4CAF50" fill-opacity="0.7" stroke="#4CAF50" stroke-width="1"/><text x="548.7412044538719" y="800.2610885867252" font-size="10" fill="white" text-anchor="middle" dominant-baseline="middle">Studio +</text><polygon points="587.7474931641888,709.2179941546552 543.0474596092806,618.6666313151896 440.941751628093,655.8118750485335 483.15807241286797,741.3318417490883" fill="#4CAF50" fill-opacity="0.7" stroke="#4CAF50" stroke-width="1"/><text x="513.7236942036076" y="681.2570855668666" font-size="10" fill="white" text-anchor="middle" dominant-baseline="middle">1 Bedroo</text><polygon points="543.0474596092806,618.6666313151896 498.3474260543725,528.1152684757241 398.7254308433181,570.2919083479787 440.941751628093,655.8118750485335" fill="#4CAF50" fill-opacity="0.7" stroke="#4CAF50" stroke-width="1"/><text x="470.26551703376606" y="593.2214207968565" font-size="10" fill="white" text-anchor="middle" dominant-baseline="middle">2 Bedroo</text><polygon points="498.3474260543725,528.1152684757241 453.64739249946433,437.5639056362585 356.5091100585432,484.7719416474239 398.7254308433181,570.2919083479787" fill="#4CAF50" fill-opacity="0.7" stroke="#4CAF50" stroke-width="1"/><text x="426.80733986392454" y="505.1857560268463" font-size="10" fill="white" text-anchor="middle" dominant-baseline="middle">2 Bedroo</text><polygon points="487.36631364567154,384.46198972799914 435.78306938929273,266.6388820891559 352.63006215429476,345.9983546383045 389.7790046282779,430.85156445245923" fill="#4CAF50" fill-opacity="0.7" stroke="#4CAF50" stroke-width="1"/><text x="416.38961245438423" y="356.9876977269797" font-size="10" fill="white" text-anchor="middle" dominant-baseline="middle">2 Bedroo</text><polygon points="435.78306938929273,266.6388820891559 384.19982513291393,148.8157744503128 315.4811196803117,261.1451448241497 352.63006215429476,345.9983546383045" fill="#4CAF50" fill-opacity="0.7" stroke="#4CAF50" stroke-width="1"/><text x="372.02351908920326" y="255.64953900048067" font-size="10" fill="white" text-anchor="middle" dominant-baseline="middle">3 Bedroo</text><polygon points="384.19982513291393,148.8157744503128 332.6165808765351,30.992666811469576 278.33217720632854,176.29193500999486 315.4811196803117,261.1451448241497" fill="#4CAF50" fill-opacity="0.7" stroke="#4CAF50" stroke-width="1"/><text x="327.65742572402235" y="154.31138027398174" font-size="10" fill="white" text-anchor="middle" dominant-baseline="middle">3 Bedroo</text><polygon points="317.119985431439,25.463752485951545 221.64131664435598,74.29123618968856 235.85910226238423,188.32342686329912 270.9406578939571,170.3828323026206" fill="#4CAF50" fill-opacity="0.7" stroke="#4CAF50" stroke-width="1"/><text x="261.3902655580341" y="114.61531196039004" font-size="10" fill="white" text-anchor="middle" dominant-baseline="middle">Studio +</text><polygon points="221.64131664435598,74.29123618968856 126.16264785727299,123.11871989342558 200.77754663081134,206.26402142397774 235.85910226238423,188.32342686329912" fill="#4CAF50" fill-opacity="0.7" stroke="#4CAF50" stroke-width="1"/><text x="196.11015334870615" y="147.99935109259775" font-size="10" fill="white" text-anchor="middle" dominant-baseline="middle">1 Bedroo</text><polygon points="126.16264785727299,123.11871989342558 30.683979070189935,171.9462035971626 165.6959909992384,224.20461598465624 200.77754663081134,206.26402142397774" fill="#4CAF50" fill-opacity="0.7" stroke="#4CAF50" stroke-width="1"/><text x="130.83004113937818" y="181.38339022480557" font-size="10" fill="white" text-anchor="middle" dominant-baseline="middle">2 Bedroo</text><polygon points="25.05708925683001,188.2923201759229 71.8791725053959,289.04888815750076 201.30867293331744,311.29467862976844 165.6245165529312,234.5058456955619" fill="#4CAF50" fill-opacity="0.7" stroke="#4CAF50" stroke-width="1"/><text x="115.96736281211867" y="255.78543316468858" font-size="10" fill="white" text-anchor="middle" dominant-baseline="middle">2 Bedroo</text><polygon points="71.8791725053959,289.04888815750076 118.70125575396176,389.8054561390785 236.99282931370365,388.083511563975 201.30867293331744,311.29467862976844" fill="#4CAF50" fill-opacity="0.7" stroke="#4CAF50" stroke-width="1"/><text x="157.22048262659467" y="344.5581336225807" font-size="10" fill="white" text-anchor="middle" dominant-baseline="middle">2 Bedroo</text><polygon points="118.70125575396176,389.8054561390785 165.52333900252765,490.56202412065636 272.67698569408986,464.8723444981815 236.99282931370365,388.083511563975" fill="#4CAF50" fill-opacity="0.7" stroke="#4CAF50" stroke-width="1"/><text x="198.47360244107074" y="433.33083408047287" font-size="10" fill="white" text-anchor="middle" dominant-baseline="middle">3 Bedroo</text><polygon points="165.52333900252765,490.56202412065636 212.34542225109354,591.3185921022341 308.3611420744761,541.6611774323881 272.67698569408986,464.8723444981815" fill="#4CAF50" fill-opacity="0.7" stroke="#4CAF50" stroke-width="1"/><text x="239.7267222555468" y="522.103534538365" font-size="10" fill="white" text-anchor="middle" dominant-baseline="middle">3 Bedroo</text><polygon points="212.34542225109354,591.3185921022341 259.16750549965934,692.0751600838119 344.0452984548623,618.4500103665946 308.3611420744761,541.6611774323881" fill="#4CAF50" fill-opacity="0.7" stroke="#4CAF50" stroke-width="1"/><text x="280.9798420700228" y="610.8762349962572" font-size="10" fill="white" text-anchor="middle" dominant-baseline="middle">Studio +</text><polygon points="259.16750549965934,692.0751600838119 305.9895887482253,792.8317280653896 379.72945483524853,695.2388433008011 344.0452984548623,618.4500103665946" fill="#4CAF50" fill-opacity="0.7" stroke="#4CAF50" stroke-width="1"/><text x="322.2329618844989" y="699.6489354541493" font-size="10" fill="white" text-anchor="middle" dominant-baseline="middle">1 Bedroo</text><polygon points="305.9895887482253,792.8317280653896 352.8116719967912,893.5882960469675 415.4136112156348,772.0276762350077 379.72945483524853,695.2388433008011" fill="#4CAF50" fill-opacity="0.7" stroke="#4CAF50" stroke-width="1"/><text x="363.48608169897494" y="788.4216359120414" font-size="10" fill="white" text-anchor="middle" dominant-baseline="middle">2 Bedroo</text><polygon points="352.8116719967912,893.5882960469675 399.63375524535707,994.3448640285452 451.097767596021,848.8165091692142 415.4136112156348,772.0276762350077" fill="#4CAF50" fill-opacity="0.7" stroke="#4CAF50" stroke-width="1"/><text x="404.739201513451" y="877.1943363699337" font-size="10" fill="white" text-anchor="middle" dominant-baseline="middle">2 Bedroo</text><polygon points="413.1084052159084,1000.8288977175146 509.9103534237044,950.2480980733606 476.77644137543103,845.7064714868498 456.6978526132054,856.1979036751711" fill="#4CAF50" fill-opacity="0.7" stroke="#4CAF50" stroke-width="1"/><text x="464.1232631570623" y="913.245342738224" font-size="10" fill="white" text-anchor="middle" dominant-baseline="middle">2 Bedroo</text><polygon points="509.9103534237044,950.2480980733606 606.7123016315004,899.6672984292065 496.85503013765674,835.2150392985282 476.77644137543103,845.7064714868498" fill="#4CAF50" fill-opacity="0.7" stroke="#4CAF50" stroke-width="1"/><text x="522.5635316420731" y="882.7092268219862" font-size="10" fill="white" text-anchor="middle" dominant-baseline="middle">3 Bedroo</text><rect x="265.79085189245643" y="375.9768876174709" width="40" height="48" fill="#9E9E9E" fill-opacity="0.7" stroke="#9E9E9E" stroke-width="1"/><text x="285.79085189245643" y="399.9768876174709" font-size="10" fill="white" text-anchor="middle" dominant-baseline="middle">Stair 1</text><rect x="195.8992926558423" y="225.57705166446317" width="40" height="48" fill="#9E9E9E" fill-opacity="0.7" stroke="#9E9E9E" stroke-width="1"/><text x="215.8992926558423" y="249.57705166446317" font-size="10" fill="white" text-anchor="middle" dominant-baseline="middle">Stair 2</text><rect x="309.1790072675266" y="489.17559010922866" width="32" height="32" fill="#9E9E9E" fill-opacity="0.7" stroke="#9E9E9E" stroke-width="1"/><text x="325.1790072675266" y="505.17559010922866" font-size="8" fill="white" text-anchor="middle" dominant-baseline="middle">Elevator</text><rect x="215.68769816570583" y="287.9913883897798" width="32" height="32" fill="#9E9E9E" fill-opacity="0.7" stroke="#9E9E9E" stroke-width="1"/><text x="231.68769816570583" y="303.9913883897798" font-size="8" fill="white" text-anchor="middle" dominant-baseline="middle">Elevator</text><rect x="347.35307482290335" y="570.6456682662259" width="20" height="20" fill="#FF9800" fill-opacity="0.7" stroke="#FF9800" stroke-width="1"/><text x="357.35307482290335" y="580.6456682662259" font-size="5" fill="white" text-anchor="middle" dominant-baseline="middle">Trash</text><rect x="237.00480153164924" y="333.1869195707477" width="20" height="20" fill="#FF9800" fill-opacity="0.7" stroke="#FF9800" stroke-width="1"/><text x="247.00480153164924" y="343.1869195707477" font-size="5" fill="white" text-anchor="middle" dominant-baseline="middle">Mech</text><rect x="374.3242175259967" y="628.6849434278729" width="20" height="20" fill="#FF9800" fill-opacity="0.7" stroke="#FF9800" stroke-width="1"/><text x="384.3242175259967" y="638.6849434278729" font-size="5" fill="white" text-anchor="middle" dominant-baseline="middle">Stor</text><rect x="287.5756940999492" y="442.01056049883584" width="20" height="20" fill="#FF9800" fill-opacity="0.7" stroke="#FF9800" stroke-width="1"/><text x="297.5756940999492" y="452.01056049883584" font-size="5" fill="white" text-anchor="middle" dominant-baseline="middle">Elec</text><rect x="272" y="305.2272281213541" width="40" height="48" fill="#FF9800" fill-opacity="0.7" stroke="#FF9800" stroke-width="1"/><text x="292" y="329.2272281213541" font-size="10" fill="white" text-anchor="middle" dominant-baseline="middle">Misc</text><rect x="320" y="417.2272281213541" width="40" height="48" fill="#FF9800" fill-opacity="0.7" stroke="#FF9800" stroke-width="1"/><text x="340" y="441.2272281213541" font-size="10" fill="white" text-anchor="middle" dominant-baseline="middle">Misc</text><rect x="416" y="705.2272281213541" width="40" height="48" fill="#FF9800" fill-opacity="0.7" stroke="#FF9800" stroke-width="1"/><text x="436" y="729.2272281213541" font-size="10" fill="white" text-anchor="middle" dominant-baseline="middle">Misc</text><text x="10" y="15" font-size="12" fill="white">Floor 1 (RESIDENTIAL_TYPICAL)</text></svg>