<svg xmlns="http://www.w3.org/2000/svg" width="635.1298623452218" height="1025.227228121354" viewBox="0 0 635.1298623452218 1025.227228121354"><rect width="100%" height="100%" fill="#1a1a2e"/><path d="M 615.1298623452218 895.2689680253671 L 593.0592625039449 719.978342963185 L 448.3356231597083 426.8035568277287 L 492.1789300205777 395.4546565394687 L 327.803964501629 20 L 20 177.40995608311414 L 404.6908445021871 1005.2272281213541 Z" fill="none" stroke="#fff" stroke-width="2"/><rect x="297.70520255793883" y="492.89793334190324" width="40" height="48" fill="#9E9E9E" fill-opacity="0.7" stroke="#9E9E9E" stroke-width="1"/><text x="317.70520255793883" y="516.8979333419032" font-size="10" fill="white" text-anchor="middle" dominant-baseline="middle">Stair 1</text><rect x="341.70520255793883" y="492.89793334190324" width="40" height="48" fill="#9E9E9E" fill-opacity="0.7" stroke="#9E9E9E" stroke-width="1"/><text x="361.70520255793883" y="516.8979333419032" font-size="10" fill="white" text-anchor="middle" dominant-baseline="middle">Stair 2</text><rect x="301.70520255793883" y="456.89793334190324" width="32" height="32" fill="#9E9E9E" fill-opacity="0.7" stroke="#9E9E9E" stroke-width="1"/><text x="317.70520255793883" y="472.89793334190324" font-size="8" fill="white" text-anchor="middle" dominant-baseline="middle">Elevator</text><rect x="345.70520255793883" y="456.89793334190324" width="32" height="32" fill="#9E9E9E" fill-opacity="0.7" stroke="#9E9E9E" stroke-width="1"/><text x="361.70520255793883" y="472.89793334190324" font-size="8" fill="white" text-anchor="middle" dominant-baseline="middle">Elevator</text><rect x="381.70520255793883" y="540.8979333419032" width="20" height="20" fill="#FF9800" fill-opacity="0.7" stroke="#FF9800" stroke-width="1"/><text x="391.70520255793883" y="550.8979333419032" font-size="5" fill="white" text-anchor="middle" dominant-baseline="middle">Trash</text><rect x="381.70520255793883" y="432.89793334190324" width="20" height="20" fill="#FF9800" fill-opacity="0.7" stroke="#FF9800" stroke-width="1"/><text x="391.70520255793883" y="442.89793334190324" font-size="5" fill="white" text-anchor="middle" dominant-baseline="middle">Mech</text><rect x="277.70520255793883" y="540.8979333419032" width="20" height="20" fill="#FF9800" fill-opacity="0.7" stroke="#FF9800" stroke-width="1"/><text x="287.70520255793883" y="550.8979333419032" font-size="5" fill="white" text-anchor="middle" dominant-baseline="middle">Stor</text><rect x="277.70520255793883" y="432.89793334190324" width="20" height="20" fill="#FF9800" fill-opacity="0.7" stroke="#FF9800" stroke-width="1"/><text x="287.70520255793883" y="442.89793334190324" font-size="5" fill="white" text-anchor="middle" dominant-baseline="middle">Elec</text><polygon points="615.1298623452218,895.2689680253671 594.2274418239795,729.2563365232256 401.70520255793883,553.4989637225287 401.70520255793883,560.8979333419032 383.95334484667785,560.8979333419032" fill="#4CAF50" fill-opacity="0.7" stroke="#4CAF50" stroke-width="1"/><text x="479.3442108263514" y="659.9640269909855" font-size="10" fill="white" text-anchor="middle" dominant-baseline="middle">Studio +</text><polygon points="594.2274418239795,729.2563365232256 593.0592625039449,719.978342963185 539.592258025056,611.6672358460052 401.70520255793883,532.4965204471343 401.70520255793883,553.4989637225287" fill="#4CAF50" fill-opacity="0.7" stroke="#4CAF50" stroke-width="1"/><text x="506.0578734937716" y="629.3794799004157" font-size="10" fill="white" text-anchor="middle" dominant-baseline="middle">2 Bedroo</text><polygon points="539.592258025056,611.6672358460052 481.9859482626612,494.9709060607114 401.70520255793883,496.058215424752 401.70520255793883,532.4965204471343" fill="#4CAF50" fill-opacity="0.7" stroke="#4CAF50" stroke-width="1"/><text x="456.2471528508987" y="533.7982194446507" font-size="10" fill="white" text-anchor="middle" dominant-baseline="middle">2 Bedroo</text><polygon points="481.9859482626612,494.9709060607114 448.3356231597083,426.8035568277287 492.1789300205777,395.4546565394687 428.71277332216414,250.48936946029949 362.82324861597886,432.89793334190324 401.70520255793883,432.89793334190324 401.70520255793883,496.058215424752" fill="#4CAF50" fill-opacity="0.7" stroke="#4CAF50" stroke-width="1"/><text x="431.0638469281383" y="418.5103672852524" font-size="10" fill="white" text-anchor="middle" dominant-baseline="middle">2 Bedroo</text><polygon points="428.71277332216414,250.48936946029949 335.51102374376256,37.603965856656146 339.12076761406837,432.89793334190324 362.82324861597886,432.89793334190324" fill="#4CAF50" fill-opacity="0.7" stroke="#4CAF50" stroke-width="1"/><text x="366.5419533239935" y="288.4723005001905" font-size="10" fill="white" text-anchor="middle" dominant-baseline="middle">3 Bedroo</text><polygon points="335.51102374376256,37.603965856656146 327.803964501629,20 262.1506623327468,53.57488727556813 328.5090993585811,432.89793334190324 339.12076761406837,432.89793334190324" fill="#4CAF50" fill-opacity="0.7" stroke="#4CAF50" stroke-width="1"/><text x="318.6191035101576" y="195.39494396320606" font-size="10" fill="white" text-anchor="middle" dominant-baseline="middle">1 Bedroo</text><polygon points="262.1506623327468,53.57488727556813 146.2825648222142,112.8294591589995 307.4738437060505,432.89793334190324 328.5090993585811,432.89793334190324" fill="#4CAF50" fill-opacity="0.7" stroke="#4CAF50" stroke-width="1"/><text x="261.1040425548982" y="258.0500532795935" font-size="10" fill="white" text-anchor="middle" dominant-baseline="middle">2 Bedroo</text><polygon points="146.2825648222142,112.8294591589995 20,177.40995608311414 69.91477584042565,284.8216976442952 277.70520255793883,448.16111649769687 277.70520255793883,432.89793334190324 307.4738437060505,432.89793334190324" fill="#4CAF50" fill-opacity="0.7" stroke="#4CAF50" stroke-width="1"/><text x="183.1802649140947" y="314.83634934465204" font-size="10" fill="white" text-anchor="middle" dominant-baseline="middle">2 Bedroo</text><polygon points="69.91477584042565,284.8216976442952 136.51142104539957,428.1311991527633 277.70520255793883,475.9153152322857 277.70520255793883,448.16111649769687" fill="#4CAF50" fill-opacity="0.7" stroke="#4CAF50" stroke-width="1"/><text x="190.45915050042572" y="409.25733213176034" font-size="10" fill="white" text-anchor="middle" dominant-baseline="middle">3 Bedroo</text><polygon points="136.51142104539957,428.1311991527633 203.10806625037355,571.4407006612315 277.70520255793883,530.732109509346 277.70520255793883,475.9153152322857" fill="#4CAF50" fill-opacity="0.7" stroke="#4CAF50" stroke-width="1"/><text x="223.75747310291268" y="501.5548311389066" font-size="10" fill="white" text-anchor="middle" dominant-baseline="middle">3 Bedroo</text><polygon points="203.10806625037355,571.4407006612315 234.4476639938907,638.8804660769813 292.25934891431825,560.8979333419032 277.70520255793883,560.8979333419032 277.70520255793883,530.732109509346" fill="#4CAF50" fill-opacity="0.7" stroke="#4CAF50" stroke-width="1"/><text x="257.045096854892" y="572.569828586273" font-size="10" fill="white" text-anchor="middle" dominant-baseline="middle">Studio +</text><polygon points="234.4476639938907,638.8804660769813 273.62216117328717,723.1801728466685 321.0147624338095,560.8979333419032 292.25934891431825,560.8979333419032" fill="#4CAF50" fill-opacity="0.7" stroke="#4CAF50" stroke-width="1"/><text x="280.3359841288264" y="620.9641264018641" font-size="10" fill="white" text-anchor="middle" dominant-baseline="middle">1 Bedroo</text><polygon points="273.62216117328717,723.1801728466685 328.46645722444225,841.1997623242305 337.6161061872637,560.8979333419032 321.0147624338095,560.8979333419032" fill="#4CAF50" fill-opacity="0.7" stroke="#4CAF50" stroke-width="1"/><text x="315.1798717547007" y="671.5439504636763" font-size="10" fill="white" text-anchor="middle" dominant-baseline="middle">2 Bedroo</text><polygon points="328.46645722444225,841.1997623242305 383.31075327559716,959.2193518017924 345.74159874141407,560.8979333419032 337.6161061872637,560.8979333419032" fill="#4CAF50" fill-opacity="0.7" stroke="#4CAF50" stroke-width="1"/><text x="348.7837288571793" y="730.5537452024573" font-size="10" fill="white" text-anchor="middle" dominant-baseline="middle">2 Bedroo</text><polygon points="383.31075327559716,959.2193518017924 404.6908445021871,1005.2272281213541 615.1298623452218,895.2689680253671 615.1298623452218,895.2689680253671 383.95334484667785,560.8979333419032 345.74159874141407,560.8979333419032" fill="#4CAF50" fill-opacity="0.7" stroke="#4CAF50" stroke-width="1"/><text x="457.99271100938665" y="812.7967304429478" font-size="10" fill="white" text-anchor="middle" dominant-baseline="middle">2 Bedroo</text><text x="10" y="15" font-size="12" fill="white">Floor 1 (RESIDENTIAL_TYPICAL)</text></svg>