<svg xmlns="http://www.w3.org/2000/svg" width="834.802160371553" height="982.3310869435448" viewBox="0 0 834.802160371553 982.3310869435448"><rect width="100%" height="100%" fill="#1a1a2e"/><path d="M 327.55967596530115 962.3310869435448 L 790.4223829684313 471.69248493009417 L 706.3711203475497 368.00038596617867 L 814.802160371553 219.81887054043875 L 612.6791808122753 20 L 20 640.3900588690918 Z" fill="none" stroke="#fff" stroke-width="2"/><polygon points="335.7942843896518,953.602328492447 385.39356107347726,901.0266523689743 365.6868785740612,752.8732653806529 332.5346264727208,788.0149486022592" fill="#4CAF50" fill-opacity="0.7" stroke="#4CAF50" stroke-width="1"/><text x="354.85233762747777" y="848.8792987110833" font-size="10" fill="white" text-anchor="middle" dominant-baseline="middle">Studio +</text><polygon points="385.39356107347726,901.0266523689743 434.99283775730265,848.4509762455015 398.83913067540163,717.7315821590466 365.6868785740612,752.8732653806529" fill="#4CAF50" fill-opacity="0.7" stroke="#4CAF50" stroke-width="1"/><text x="396.2281020200607" y="805.0206190385438" font-size="10" fill="white" text-anchor="middle" dominant-baseline="middle">1 Bedroo</text><polygon points="434.99283775730265,848.4509762455015 484.59211444112805,795.8753001220286 431.9913827767421,682.5898989374404 398.83913067540163,717.7315821590466" fill="#4CAF50" fill-opacity="0.7" stroke="#4CAF50" stroke-width="1"/><text x="437.60386641264364" y="761.1619393660043" font-size="10" fill="white" text-anchor="middle" dominant-baseline="middle">2 Bedroo</text><polygon points="484.59211444112805,795.8753001220286 534.1913911249535,743.299623998556 465.14363487808254,647.4482157158341 431.9913827767421,682.5898989374404" fill="#4CAF50" fill-opacity="0.7" stroke="#4CAF50" stroke-width="1"/><text x="478.9796308052265" y="717.3032596934647" font-size="10" fill="white" text-anchor="middle" dominant-baseline="middle">2 Bedroo</text><polygon points="534.1913911249535,743.299623998556 583.7906678087788,690.7239478750831 498.29588697942296,612.3065324942278 465.14363487808254,647.4482157158341" fill="#4CAF50" fill-opacity="0.7" stroke="#4CAF50" stroke-width="1"/><text x="520.3553951978095" y="673.4445800209253" font-size="10" fill="white" text-anchor="middle" dominant-baseline="middle">2 Bedroo</text><polygon points="583.7906678087788,690.7239478750831 633.3899444926044,638.1482717516103 531.4481390807634,577.1648492726215 498.29588697942296,612.3065324942278" fill="#4CAF50" fill-opacity="0.7" stroke="#4CAF50" stroke-width="1"/><text x="561.7311595903924" y="629.5859003483856" font-size="10" fill="white" text-anchor="middle" dominant-baseline="middle">3 Bedroo</text><polygon points="633.3899444926044,638.1482717516103 682.9892211764297,585.5725956281376 564.6003911821039,542.0231660510152 531.4481390807634,577.1648492726215" fill="#4CAF50" fill-opacity="0.7" stroke="#4CAF50" stroke-width="1"/><text x="603.1069239829753" y="585.7272206758462" font-size="10" fill="white" text-anchor="middle" dominant-baseline="middle">3 Bedroo</text><polygon points="682.9892211764297,585.5725956281376 732.5884978602552,532.9969195046648 597.7526432834443,506.8814828294089 564.6003911821039,542.0231660510152" fill="#4CAF50" fill-opacity="0.7" stroke="#4CAF50" stroke-width="1"/><text x="644.4826883755583" y="541.8685410033066" font-size="10" fill="white" text-anchor="middle" dominant-baseline="middle">Studio +</text><polygon points="732.5884978602552,532.9969195046648 782.1877745440805,480.4212433811921 630.9048953847848,471.7397996078027 597.7526432834443,506.8814828294089" fill="#4CAF50" fill-opacity="0.7" stroke="#4CAF50" stroke-width="1"/><text x="685.8584527681412" y="498.00986133076714" font-size="10" fill="white" text-anchor="middle" dominant-baseline="middle">1 Bedroo</text><polygon points="787.060332463596,467.5448009715376 709.7331708523849,372.1480699247353 563.0398566608166,375.3917595544036 633.3518790691917,462.1340755956022" fill="#4CAF50" fill-opacity="0.7" stroke="#4CAF50" stroke-width="1"/><text x="673.2963097614972" y="419.3046765115696" font-size="10" fill="white" text-anchor="middle" dominant-baseline="middle">2 Bedroo</text><polygon points="710.7083619485097,362.0731253491491 760.5866403595513,293.9096282533087 611.0612498741594,301.81672358173626 564.069087221549,366.03606403494234" fill="#4CAF50" fill-opacity="0.7" stroke="#4CAF50" stroke-width="1"/><text x="661.6063348509424" y="330.9588853047841" font-size="10" fill="white" text-anchor="middle" dominant-baseline="middle">2 Bedroo</text><polygon points="760.5866403595513,293.9096282533087 810.4649187705929,225.7461311574683 658.0534125267699,237.5973831285304 611.0612498741594,301.81672358173626" fill="#4CAF50" fill-opacity="0.7" stroke="#4CAF50" stroke-width="1"/><text x="710.0415553827684" y="264.767466530261" font-size="10" fill="white" text-anchor="middle" dominant-baseline="middle">2 Bedroo</text><polygon points="806.7172411891819,211.82611571882114 744.7328607910033,150.5483287530866 645.8128388950079,215.87236257580605 660.2558203886904,230.1507007222002" fill="#4CAF50" fill-opacity="0.7" stroke="#4CAF50" stroke-width="1"/><text x="714.379690315971" y="202.09937694247844" font-size="10" fill="white" text-anchor="middle" dominant-baseline="middle">3 Bedroo</text><polygon points="744.7328607910033,150.5483287530866 682.7484803928248,89.27054178735204 631.3698574013255,201.59402442941177 645.8128388950079,215.87236257580605" fill="#4CAF50" fill-opacity="0.7" stroke="#4CAF50" stroke-width="1"/><text x="676.1660093700405" y="164.3213143864141" font-size="10" fill="white" text-anchor="middle" dominant-baseline="middle">3 Bedroo</text><polygon points="682.7484803928248,89.27054178735204 620.7640999946464,27.992754821617496 616.926875907643,187.3156862830176 631.3698574013255,201.59402442941177" fill="#4CAF50" fill-opacity="0.7" stroke="#4CAF50" stroke-width="1"/><text x="637.95232842411" y="126.54325183034973" font-size="10" fill="white" text-anchor="middle" dominant-baseline="middle">Studio +</text><polygon points="604.389896396911,28.676852187354484 552.0171134894977,83.49833895957113 570.5590358608835,232.0171276299419 608.9644110505246,191.81609856369948" fill="#4CAF50" fill-opacity="0.7" stroke="#4CAF50" stroke-width="1"/><text x="583.9826141994542" y="134.00210433514178" font-size="10" fill="white" text-anchor="middle" dominant-baseline="middle">1 Bedroo</text><polygon points="552.0171134894977,83.49833895957113 499.6443305820843,138.31982573178777 532.1536606712423,272.21815669618434 570.5590358608835,232.0171276299419" fill="#4CAF50" fill-opacity="0.7" stroke="#4CAF50" stroke-width="1"/><text x="538.593535150927" y="181.51336225437126" font-size="10" fill="white" text-anchor="middle" dominant-baseline="middle">2 Bedroo</text><polygon points="499.6443305820843,138.31982573178777 447.27154767467096,193.14131250400442 493.7482854816011,312.4191857624269 532.1536606712423,272.21815669618434" fill="#4CAF50" fill-opacity="0.7" stroke="#4CAF50" stroke-width="1"/><text x="493.20445610239966" y="229.02462017360085" font-size="10" fill="white" text-anchor="middle" dominant-baseline="middle">2 Bedroo</text><polygon points="447.27154767467096,193.14131250400442 394.8987647672576,247.96279927622106 455.3429102919599,352.6202148286693 493.7482854816011,312.4191857624269" fill="#4CAF50" fill-opacity="0.7" stroke="#4CAF50" stroke-width="1"/><text x="447.8153770538724" y="276.53587809283033" font-size="10" fill="white" text-anchor="middle" dominant-baseline="middle">2 Bedroo</text><polygon points="394.8987647672576,247.96279927622106 342.5259818598443,302.7842860484376 416.93753510231875,392.82124389491185 455.3429102919599,352.6202148286693" fill="#4CAF50" fill-opacity="0.7" stroke="#4CAF50" stroke-width="1"/><text x="402.42629800534513" y="324.0471360120599" font-size="10" fill="white" text-anchor="middle" dominant-baseline="middle">3 Bedroo</text><polygon points="342.5259818598443,302.7842860484376 290.15319895243096,357.60577282065424 378.53215991267757,433.0222729611543 416.93753510231875,392.82124389491185" fill="#4CAF50" fill-opacity="0.7" stroke="#4CAF50" stroke-width="1"/><text x="357.0372189568179" y="371.5583939312895" font-size="10" fill="white" text-anchor="middle" dominant-baseline="middle">3 Bedroo</text><polygon points="290.15319895243096,357.60577282065424 237.7804160450176,412.4272595928709 340.1267847230364,473.22330202739676 378.53215991267757,433.0222729611543" fill="#4CAF50" fill-opacity="0.7" stroke="#4CAF50" stroke-width="1"/><text x="311.64813990829066" y="419.069651850519" font-size="10" fill="white" text-anchor="middle" dominant-baseline="middle">Studio +</text><polygon points="237.7804160450176,412.4272595928709 185.4076331376043,467.2487463650874 301.7214095333952,513.4243310936392 340.1267847230364,473.22330202739676" fill="#4CAF50" fill-opacity="0.7" stroke="#4CAF50" stroke-width="1"/><text x="266.2590608597634" y="466.5809097697486" font-size="10" fill="white" text-anchor="middle" dominant-baseline="middle">1 Bedroo</text><polygon points="185.4076331376043,467.2487463650874 133.034850230191,522.0702331373041 263.31603434375404,553.6253601598817 301.7214095333952,513.4243310936392" fill="#4CAF50" fill-opacity="0.7" stroke="#4CAF50" stroke-width="1"/><text x="220.86998181123616" y="514.0921676889781" font-size="10" fill="white" text-anchor="middle" dominant-baseline="middle">2 Bedroo</text><polygon points="133.034850230191,522.0702331373041 80.6620673227776,576.8917199095207 224.9106591541128,593.8263892261241 263.31603434375404,553.6253601598817" fill="#4CAF50" fill-opacity="0.7" stroke="#4CAF50" stroke-width="1"/><text x="175.48090276270887" y="561.6034256082075" font-size="10" fill="white" text-anchor="middle" dominant-baseline="middle">2 Bedroo</text><polygon points="80.6620673227776,576.8917199095207 28.28928441536425,631.7132066817373 186.50528396447163,634.0274182923665 224.9106591541128,593.8263892261241" fill="#4CAF50" fill-opacity="0.7" stroke="#4CAF50" stroke-width="1"/><text x="130.0918237141816" y="609.1146835274371" font-size="10" fill="white" text-anchor="middle" dominant-baseline="middle">2 Bedroo</text><polygon points="28.28926671447391,649.066927966659 76.78612380386613,699.8314762798788 207.49482474340815,668.7240549703073 184.37791596649248,644.5262099368666" fill="#4CAF50" fill-opacity="0.7" stroke="#4CAF50" stroke-width="1"/><text x="124.23703280706019" y="665.5371672884279" font-size="10" fill="white" text-anchor="middle" dominant-baseline="middle">3 Bedroo</text><polygon points="76.78612380386613,699.8314762798788 125.28298089325835,750.5960245930985 230.6117335203238,692.9219000037479 207.49482474340815,668.7240549703073" fill="#4CAF50" fill-opacity="0.7" stroke="#4CAF50" stroke-width="1"/><text x="160.04391574021412" y="703.0183639617582" font-size="10" fill="white" text-anchor="middle" dominant-baseline="middle">3 Bedroo</text><polygon points="125.28298089325835,750.5960245930985 173.77983798265058,801.3605729063183 253.72864229723947,717.1197450371885 230.6117335203238,692.9219000037479" fill="#4CAF50" fill-opacity="0.7" stroke="#4CAF50" stroke-width="1"/><text x="195.85079867336808" y="740.4995606350883" font-size="10" fill="white" text-anchor="middle" dominant-baseline="middle">Studio +</text><polygon points="173.77983798265058,801.3605729063183 222.2766950720428,852.1251212195382 276.84555107415514,741.3175900706292 253.72864229723947,717.1197450371885" fill="#4CAF50" fill-opacity="0.7" stroke="#4CAF50" stroke-width="1"/><text x="231.657681606522" y="777.9807573084186" font-size="10" fill="white" text-anchor="middle" dominant-baseline="middle">1 Bedroo</text><polygon points="222.2766950720428,852.1251212195382 270.77355216143496,902.8896695327579 299.9624598510708,765.5154351040698 276.84555107415514,741.3175900706292" fill="#4CAF50" fill-opacity="0.7" stroke="#4CAF50" stroke-width="1"/><text x="267.4645645396759" y="815.4619539817488" font-size="10" fill="white" text-anchor="middle" dominant-baseline="middle">2 Bedroo</text><polygon points="270.77355216143496,902.8896695327579 319.27040925082724,953.6542178459778 323.07936862798647,789.7132801375104 299.9624598510708,765.5154351040698" fill="#4CAF50" fill-opacity="0.7" stroke="#4CAF50" stroke-width="1"/><text x="303.2714474728299" y="852.943150655079" font-size="10" fill="white" text-anchor="middle" dominant-baseline="middle">2 Bedroo</text><rect x="529.5737679130996" y="295.3948073495395" width="40" height="48" fill="#9E9E9E" fill-opacity="0.7" stroke="#9E9E9E" stroke-width="1"/><text x="549.5737679130996" y="319.3948073495395" font-size="10" fill="white" text-anchor="middle" dominant-baseline="middle">Stair 1</text><rect x="563.2558248567212" y="438.64908976048105" width="40" height="48" fill="#9E9E9E" fill-opacity="0.7" stroke="#9E9E9E" stroke-width="1"/><text x="583.2558248567212" y="462.64908976048105" font-size="10" fill="white" text-anchor="middle" dominant-baseline="middle">Stair 2</text><rect x="354.10048724479105" y="478.66296128168744" width="20" height="20" fill="#FF9800" fill-opacity="0.7" stroke="#FF9800" stroke-width="1"/><text x="364.10048724479105" y="488.66296128168744" font-size="5" fill="white" text-anchor="middle" dominant-baseline="middle">Trash</text><rect x="604.565786155043" y="216.48708845511544" width="20" height="20" fill="#FF9800" fill-opacity="0.7" stroke="#FF9800" stroke-width="1"/><text x="614.565786155043" y="226.48708845511544" font-size="5" fill="white" text-anchor="middle" dominant-baseline="middle">Mech</text><rect x="309.89097036284824" y="524.9395062809116" width="20" height="20" fill="#FF9800" fill-opacity="0.7" stroke="#FF9800" stroke-width="1"/><text x="319.89097036284824" y="534.9395062809116" font-size="5" fill="white" text-anchor="middle" dominant-baseline="middle">Stor</text><rect x="576.9348381038287" y="245.40992907963061" width="20" height="20" fill="#FF9800" fill-opacity="0.7" stroke="#FF9800" stroke-width="1"/><text x="586.9348381038287" y="255.40992907963061" font-size="5" fill="white" text-anchor="middle" dominant-baseline="middle">Elec</text><rect x="224" y="614.3310869435448" width="40" height="48" fill="#FF9800" fill-opacity="0.7" stroke="#FF9800" stroke-width="1"/><text x="244" y="638.3310869435448" font-size="10" fill="white" text-anchor="middle" dominant-baseline="middle">Misc</text><rect x="288" y="678.3310869435448" width="40" height="48" fill="#FF9800" fill-opacity="0.7" stroke="#FF9800" stroke-width="1"/><text x="308" y="702.3310869435448" font-size="10" fill="white" text-anchor="middle" dominant-baseline="middle">Misc</text><rect x="288" y="614.3310869435448" width="40" height="48" fill="#FF9800" fill-opacity="0.7" stroke="#FF9800" stroke-width="1"/><text x="308" y="638.3310869435448" font-size="10" fill="white" text-anchor="middle" dominant-baseline="middle">Misc</text><rect x="352" y="662.3310869435448" width="40" height="48" fill="#FF9800" fill-opacity="0.7" stroke="#FF9800" stroke-width="1"/><text x="372" y="686.3310869435448" font-size="10" fill="white" text-anchor="middle" dominant-baseline="middle">Misc</text><rect x="352" y="598.3310869435448" width="40" height="48" fill="#FF9800" fill-opacity="0.7" stroke="#FF9800" stroke-width="1"/><text x="372" y="622.3310869435448" font-size="10" fill="white" text-anchor="middle" dominant-baseline="middle">Misc</text><rect x="352" y="534.3310869435448" width="40" height="48" fill="#FF9800" fill-opacity="0.7" stroke="#FF9800" stroke-width="1"/><text x="372" y="558.3310869435448" font-size="10" fill="white" text-anchor="middle" dominant-baseline="middle">Misc</text><rect x="400" y="470.33108694354485" width="40" height="48" fill="#FF9800" fill-opacity="0.7" stroke="#FF9800" stroke-width="1"/><text x="420" y="494.33108694354485" font-size="10" fill="white" text-anchor="middle" dominant-baseline="middle">Misc</text><rect x="416" y="582.3310869435448" width="40" height="48" fill="#FF9800" fill-opacity="0.7" stroke="#FF9800" stroke-width="1"/><text x="436" y="606.3310869435448" font-size="10" fill="white" text-anchor="middle" dominant-baseline="middle">Misc</text><rect x="416" y="406.33108694354485" width="40" height="48" fill="#FF9800" fill-opacity="0.7" stroke="#FF9800" stroke-width="1"/><text x="436" y="430.33108694354485" font-size="10" fill="white" text-anchor="middle" dominant-baseline="middle">Misc</text><rect x="464" y="518.3310869435448" width="40" height="48" fill="#FF9800" fill-opacity="0.7" stroke="#FF9800" stroke-width="1"/><text x="484" y="542.3310869435448" font-size="10" fill="white" text-anchor="middle" dominant-baseline="middle">Misc</text><rect x="480" y="454.33108694354485" width="40" height="48" fill="#FF9800" fill-opacity="0.7" stroke="#FF9800" stroke-width="1"/><text x="500" y="478.33108694354485" font-size="10" fill="white" text-anchor="middle" dominant-baseline="middle">Misc</text><rect x="480" y="390.33108694354485" width="40" height="48" fill="#FF9800" fill-opacity="0.7" stroke="#FF9800" stroke-width="1"/><text x="500" y="414.33108694354485" font-size="10" fill="white" text-anchor="middle" dominant-baseline="middle">Misc</text><text x="10" y="15" font-size="12" fill="white">Floor 1 (RESIDENTIAL_TYPICAL)</text></svg>