<svg xmlns="http://www.w3.org/2000/svg" width="834.802160371553" height="982.3310869435448" viewBox="0 0 834.802160371553 982.3310869435448"><rect width="100%" height="100%" fill="#1a1a2e"/><path d="M 327.55967596530115 962.3310869435448 L 790.4223829684313 471.69248493009417 L 706.3711203475497 368.00038596617867 L 814.802160371553 219.81887054043875 L 612.6791808122753 20 L 20 640.3900588690918 Z" fill="none" stroke="#fff" stroke-width="2"/><rect x="403.14904695067185" y="513.8434101968751" width="40" height="48" fill="#9E9E9E" fill-opacity="0.7" stroke="#9E9E9E" stroke-width="1"/><text x="423.14904695067185" y="537.8434101968751" font-size="10" fill="white" text-anchor="middle" dominant-baseline="middle">Stair 1</text><rect x="447.14904695067185" y="513.8434101968751" width="40" height="48" fill="#9E9E9E" fill-opacity="0.7" stroke="#9E9E9E" stroke-width="1"/><text x="467.14904695067185" y="537.8434101968751" font-size="10" fill="white" text-anchor="middle" dominant-baseline="middle">Stair 2</text><rect x="407.14904695067185" y="477.8434101968751" width="32" height="32" fill="#9E9E9E" fill-opacity="0.7" stroke="#9E9E9E" stroke-width="1"/><text x="423.14904695067185" y="493.8434101968751" font-size="8" fill="white" text-anchor="middle" dominant-baseline="middle">Elevator</text><rect x="451.14904695067185" y="477.8434101968751" width="32" height="32" fill="#9E9E9E" fill-opacity="0.7" stroke="#9E9E9E" stroke-width="1"/><text x="467.14904695067185" y="493.8434101968751" font-size="8" fill="white" text-anchor="middle" dominant-baseline="middle">Elevator</text><rect x="407.14904695067185" y="441.8434101968751" width="32" height="32" fill="#9E9E9E" fill-opacity="0.7" stroke="#9E9E9E" stroke-width="1"/><text x="423.14904695067185" y="457.8434101968751" font-size="8" fill="white" text-anchor="middle" dominant-baseline="middle">Elevator</text><rect x="487.14904695067185" y="561.8434101968751" width="20" height="20" fill="#FF9800" fill-opacity="0.7" stroke="#FF9800" stroke-width="1"/><text x="497.14904695067185" y="571.8434101968751" font-size="5" fill="white" text-anchor="middle" dominant-baseline="middle">Trash</text><rect x="487.14904695067185" y="417.8434101968751" width="20" height="20" fill="#FF9800" fill-opacity="0.7" stroke="#FF9800" stroke-width="1"/><text x="497.14904695067185" y="427.8434101968751" font-size="5" fill="white" text-anchor="middle" dominant-baseline="middle">Mech</text><rect x="383.14904695067185" y="561.8434101968751" width="20" height="20" fill="#FF9800" fill-opacity="0.7" stroke="#FF9800" stroke-width="1"/><text x="393.14904695067185" y="571.8434101968751" font-size="5" fill="white" text-anchor="middle" dominant-baseline="middle">Stor</text><rect x="383.14904695067185" y="417.8434101968751" width="20" height="20" fill="#FF9800" fill-opacity="0.7" stroke="#FF9800" stroke-width="1"/><text x="393.14904695067185" y="427.8434101968751" font-size="5" fill="white" text-anchor="middle" dominant-baseline="middle">Elec</text><polygon points="412.59500773268974,872.1928760467672 449.7979653809222,832.7574087794271 446.29412139303116,581.8434101968751 437.97989146449027,581.8434101968751" fill="#4CAF50" fill-opacity="0.7" stroke="#4CAF50" stroke-width="1"/><text x="436.6667464927834" y="717.1592763049862" font-size="9.300739412058128" fill="white" text-anchor="middle" dominant-baseline="middle">2 Bedroo</text><polygon points="449.7979653809222,832.7574087794271 487.00092302915476,793.3219415120868 456.8427603649236,581.8434101968751 446.29412139303116,581.8434101968751" fill="#4CAF50" fill-opacity="0.7" stroke="#4CAF50" stroke-width="1"/><text x="459.9839425420079" y="697.441542671316" font-size="10" fill="white" text-anchor="middle" dominant-baseline="middle">2 Bedroo</text><polygon points="487.00092302915476,793.3219415120868 532.1759430305799,745.4360169731738 474.2061328793724,581.8434101968751 456.8427603649236,581.8434101968751" fill="#4CAF50" fill-opacity="0.7" stroke="#4CAF50" stroke-width="1"/><text x="487.55643982600765" y="675.6111947197527" font-size="10" fill="white" text-anchor="middle" dominant-baseline="middle">3 Bedroo</text><polygon points="532.1759430305799,745.4360169731738 598.6097959738523,675.0155397100664 507.14904695067185,570.6150706960516 507.14904695067185,581.8434101968751 474.2061328793724,581.8434101968751" fill="#4CAF50" fill-opacity="0.7" stroke="#4CAF50" stroke-width="1"/><text x="523.8579931570297" y="630.9506895546084" font-size="10" fill="white" text-anchor="middle" dominant-baseline="middle">3 Bedroo</text><polygon points="598.6097959738523,675.0155397100664 625.1833371511613,646.8473488048232 507.14904695067185,550.4684560342153 507.14904695067185,570.6150706960516" fill="#4CAF50" fill-opacity="0.7" stroke="#4CAF50" stroke-width="1"/><text x="559.5228067565893" y="610.7366038112891" font-size="10" fill="white" text-anchor="middle" dominant-baseline="middle">1 Bedroo</text><polygon points="625.1833371511613,646.8473488048232 662.3862947993937,607.4118815374832 507.14904695067185,530.5436942833406 507.14904695067185,550.4684560342153" fill="#4CAF50" fill-opacity="0.7" stroke="#4CAF50" stroke-width="1"/><text x="575.4669314629747" y="583.8178451649655" font-size="10" fill="white" text-anchor="middle" dominant-baseline="middle">2 Bedroo</text><polygon points="662.3862947993937,607.4118815374832 699.5892524476262,567.9764142701429 507.14904695067185,516.4455279490287 507.14904695067185,530.5436942833406" fill="#4CAF50" fill-opacity="0.7" stroke="#4CAF50" stroke-width="1"/><text x="594.068410287091" y="555.5943795099988" font-size="10" fill="white" text-anchor="middle" dominant-baseline="middle">2 Bedroo</text><polygon points="699.5892524476262,567.9764142701429 736.7922100958588,528.5409470028028 507.14904695067185,505.94417821344524 507.14904695067185,516.4455279490287" fill="#4CAF50" fill-opacity="0.7" stroke="#4CAF50" stroke-width="1"/><text x="612.6698891112071" y="529.726766858855" font-size="10" fill="white" text-anchor="middle" dominant-baseline="middle">2 Bedroo</text><polygon points="736.7922100958588,528.5409470028028 781.967230097284,480.6550224638896 507.14904695067185,496.3112967333711 507.14904695067185,505.94417821344524" fill="#4CAF50" fill-opacity="0.7" stroke="#4CAF50" stroke-width="1"/><text x="633.2643835236216" y="502.86286110337716" font-size="10" fill="white" text-anchor="middle" dominant-baseline="middle">3 Bedroo</text><polygon points="781.967230097284,480.6550224638896 790.4223829684313,471.69248493009417 737.219178791192,406.0569222898595 507.14904695067185,479.934622490332 507.14904695067185,496.3112967333711" fill="#4CAF50" fill-opacity="0.7" stroke="#4CAF50" stroke-width="1"/><text x="664.7813771516502" y="466.93006978150925" font-size="10" fill="white" text-anchor="middle" dominant-baseline="middle">3 Bedroo</text><polygon points="737.219178791192,406.0569222898595 706.3711203475497,368.00038596617867 796.3557226922817,245.02771377311262 507.14904695067185,454.859717489688 507.14904695067185,479.934622490332" fill="#4CAF50" fill-opacity="0.7" stroke="#4CAF50" stroke-width="1"/><text x="650.8488231464735" y="390.77587240183414" font-size="10" fill="white" text-anchor="middle" dominant-baseline="middle">1 Bedroo</text><polygon points="796.3557226922817,245.02771377311262 814.802160371553,219.81887054043875 790.2000956747985,195.49725806773847 507.14904695067185,445.1574108301759 507.14904695067185,454.859717489688" fill="#4CAF50" fill-opacity="0.7" stroke="#4CAF50" stroke-width="1"/><text x="683.1312145279953" y="312.07219414023075" font-size="10" fill="white" text-anchor="middle" dominant-baseline="middle">3 Bedroo</text><polygon points="790.2000956747985,195.49725806773847 743.3838078895621,149.21465443434738 507.14904695067185,426.95122690865287 507.14904695067185,445.1574108301759" fill="#4CAF50" fill-opacity="0.7" stroke="#4CAF50" stroke-width="1"/><text x="636.9704993664261" y="304.20513756022865" font-size="10" fill="white" text-anchor="middle" dominant-baseline="middle">3 Bedroo</text><polygon points="743.3838078895621,149.21465443434738 693.8136208228414,100.20954470487436 496.17198774277557,417.8434101968751 507.14904695067185,417.8434101968751 507.14904695067185,426.95122690865287" fill="#4CAF50" fill-opacity="0.7" stroke="#4CAF50" stroke-width="1"/><text x="589.5335020713046" y="302.412449288325" font-size="10" fill="white" text-anchor="middle" dominant-baseline="middle">Studio +</text><polygon points="693.8136208228414,100.20954470487436 655.2590308820586,62.09445935972883 484.5072650558783,417.8434101968751 496.17198774277557,417.8434101968751" fill="#4CAF50" fill-opacity="0.7" stroke="#4CAF50" stroke-width="1"/><text x="582.4379761258884" y="249.49770611458837" font-size="10" fill="white" text-anchor="middle" dominant-baseline="middle">2 Bedroo</text><polygon points="655.2590308820586,62.09445935972883 612.6791808122753,20 533.6641654262025,102.70938415573335 463.4255965260074,417.8434101968751 484.5072650558783,417.8434101968751" fill="#4CAF50" fill-opacity="0.7" stroke="#4CAF50" stroke-width="1"/><text x="549.9070477404845" y="204.09813278184254" font-size="10" fill="white" text-anchor="middle" dominant-baseline="middle">2 Bedroo</text><polygon points="533.6641654262025,102.70938415573335 440.0392226399075,200.71178688430575 443.7483070728795,417.8434101968751 463.4255965260074,417.8434101968751" fill="#4CAF50" fill-opacity="0.7" stroke="#4CAF50" stroke-width="1"/><text x="470.21932291624927" y="284.7769978584473" font-size="10" fill="white" text-anchor="middle" dominant-baseline="middle">3 Bedroo</text><polygon points="440.0392226399075,200.71178688430575 402.5892455253895,239.91274797573453 431.7227597745016,417.8434101968751 443.7483070728795,417.8434101968751" fill="#4CAF50" fill-opacity="0.7" stroke="#4CAF50" stroke-width="1"/><text x="429.52488375316955" y="319.07783881344756" font-size="10" fill="white" text-anchor="middle" dominant-baseline="middle">2 Bedroo</text><polygon points="402.5892455253895,239.91274797573453 365.1392684108716,279.11370906716354 415.4258071388797,417.8434101968751 431.7227597745016,417.8434101968751" fill="#4CAF50" fill-opacity="0.7" stroke="#4CAF50" stroke-width="1"/><text x="403.7192702124106" y="338.67831935916206" font-size="10" fill="white" text-anchor="middle" dominant-baseline="middle">2 Bedroo</text><polygon points="365.1392684108716,279.11370906716354 327.68929129635364,318.3146701585923 392.09023124125383,417.8434101968751 415.4258071388797,417.8434101968751" fill="#4CAF50" fill-opacity="0.7" stroke="#4CAF50" stroke-width="1"/><text x="375.08614952183973" y="358.27879990487656" font-size="10" fill="white" text-anchor="middle" dominant-baseline="middle">2 Bedroo</text><polygon points="327.68929129635364,318.3146701585923 282.2143190858675,365.9158371981846 383.14904695067185,448.8812265376083 383.14904695067185,417.8434101968751 392.09023124125383,417.8434101968751" fill="#4CAF50" fill-opacity="0.7" stroke="#4CAF50" stroke-width="1"/><text x="353.6583871049637" y="393.75971085762706" font-size="10" fill="white" text-anchor="middle" dominant-baseline="middle">3 Bedroo</text><polygon points="282.2143190858675,365.9158371981846 215.33935995279967,435.917553432879 383.14904695067185,482.5969521770073 383.14904695067185,448.8812265376083" fill="#4CAF50" fill-opacity="0.7" stroke="#4CAF50" stroke-width="1"/><text x="315.96294323500274" y="433.32789233641984" font-size="10" fill="white" text-anchor="middle" dominant-baseline="middle">3 Bedroo</text><polygon points="215.33935995279967,435.917553432879 188.5893762995725,463.9182399267569 383.14904695067185,491.1617629563142 383.14904695067185,482.5969521770073" fill="#4CAF50" fill-opacity="0.7" stroke="#4CAF50" stroke-width="1"/><text x="292.55670753842895" y="468.3986271232394" font-size="10" fill="white" text-anchor="middle" dominant-baseline="middle">1 Bedroo</text><polygon points="188.5893762995725,463.9182399267569 30.76447274553243,629.1222902406357 383.1490469506719,519.1860475961746 383.14904695067185,491.1617629563142" fill="#4CAF50" fill-opacity="0.7" stroke="#4CAF50" stroke-width="1"/><text x="246.41298573661214" y="525.8470851799703" font-size="10" fill="white" text-anchor="middle" dominant-baseline="middle">2 Bedroo</text><polygon points="30.76447274553243,629.1222902406357 20,640.3900588690918 102.86029310099048,727.1248620052902 383.14904695067185,541.0117216112492 383.1490469506719,519.1860475961746" fill="#4CAF50" fill-opacity="0.7" stroke="#4CAF50" stroke-width="1"/><text x="183.9845719495733" y="611.3669960644884" font-size="10" fill="white" text-anchor="middle" dominant-baseline="middle">3 Bedroo</text><polygon points="102.86029310099048,727.1248620052902 140.31019024504212,766.3258994949992 383.14904695067185,554.0422564825316 383.14904695067185,541.0117216112492" fill="#4CAF50" fill-opacity="0.7" stroke="#4CAF50" stroke-width="1"/><text x="252.36714431184407" y="647.1261848985175" font-size="10" fill="white" text-anchor="middle" dominant-baseline="middle">2 Bedroo</text><polygon points="140.31019024504212,766.3258994949992 215.20998453314544,844.7279744744171 390.47857146060664,581.8434101968751 383.14904695067185,581.8434101968751 383.14904695067185,554.0422564825316" fill="#4CAF50" fill-opacity="0.7" stroke="#4CAF50" stroke-width="1"/><text x="302.4593680280276" y="665.7565901691396" font-size="10" fill="white" text-anchor="middle" dominant-baseline="middle">2 Bedroo</text><polygon points="215.20998453314544,844.7279744744171 260.68485963663693,892.3292342833497 406.60991398973664,581.8434101968751 390.47857146060664,581.8434101968751" fill="#4CAF50" fill-opacity="0.7" stroke="#4CAF50" stroke-width="1"/><text x="318.2458324050314" y="725.1860072878792" font-size="10" fill="white" text-anchor="middle" dominant-baseline="middle">3 Bedroo</text><polygon points="260.68485963663693,892.3292342833497 327.55967596530115,962.3310869435448 412.59500773268974,872.1928760467672 437.97989146449027,581.8434101968751 406.60991398973664,581.8434101968751" fill="#4CAF50" fill-opacity="0.7" stroke="#4CAF50" stroke-width="1"/><text x="369.085869757771" y="778.1080035334824" font-size="10" fill="white" text-anchor="middle" dominant-baseline="middle">3 Bedroo</text><text x="10" y="15" font-size="12" fill="white">Floor 1 (RESIDENTIAL_TYPICAL)</text></svg>