<svg xmlns="http://www.w3.org/2000/svg" width="673.4153976432603" height="743.1923793672979" viewBox="0 0 673.4153976432603 743.1923793672979"><rect width="100%" height="100%" fill="#1a1a2e"/><path d="M 20 723.1923793672979 L 650.9225359191619 720.5972311211126 L 653.4153976432603 20 L 22.49289498880603 25.190250415491732 Z" fill="none" stroke="#fff" stroke-width="2"/><polygon points="31.999898487855546,723.1430206683417 107.86524085578688,722.8309668123076 203.5725681643845,590.4361810760449 159.45280968626903,590.617657100942" fill="#4CAF50" fill-opacity="0.7" stroke="#4CAF50" stroke-width="1"/><text x="125.72262929857399" y="656.756956414409" font-size="10" fill="white" text-anchor="middle" dominant-baseline="middle">Studio +</text><polygon points="107.86524085578688,722.8309668123076 183.73058322371824,722.5189129562734 247.6923266425,590.2547050511478 203.5725681643845,590.4361810760449" fill="#4CAF50" fill-opacity="0.7" stroke="#4CAF50" stroke-width="1"/><text x="185.7151797215974" y="656.5101914739435" font-size="10" fill="white" text-anchor="middle" dominant-baseline="middle">1 Bedroo</text><polygon points="183.73058322371824,722.5189129562734 259.5959255916496,722.2068591002394 291.8120851206155,590.0732290262507 247.6923266425,590.2547050511478" fill="#4CAF50" fill-opacity="0.7" stroke="#4CAF50" stroke-width="1"/><text x="245.70773014462083" y="656.2634265334777" font-size="10" fill="white" text-anchor="middle" dominant-baseline="middle">2 Bedroo</text><polygon points="259.5959255916496,722.2068591002394 335.46126795958094,721.8948052442053 335.931843598731,589.8917530013537 291.8120851206155,590.0732290262507" fill="#4CAF50" fill-opacity="0.7" stroke="#4CAF50" stroke-width="1"/><text x="305.70028056764426" y="656.0166615930123" font-size="10" fill="white" text-anchor="middle" dominant-baseline="middle">2 Bedroo</text><polygon points="335.46126795958094,721.8948052442053 411.3266103275123,721.5827513881711 380.0516020768465,589.7102769764565 335.931843598731,589.8917530013537" fill="#4CAF50" fill-opacity="0.7" stroke="#4CAF50" stroke-width="1"/><text x="365.6928309906677" y="655.7698966525467" font-size="10" fill="white" text-anchor="middle" dominant-baseline="middle">2 Bedroo</text><polygon points="411.3266103275123,721.5827513881711 487.19195269544366,721.2706975321371 424.171360554962,589.5288009515594 380.0516020768465,589.7102769764565" fill="#4CAF50" fill-opacity="0.7" stroke="#4CAF50" stroke-width="1"/><text x="425.6853814136911" y="655.5231317120811" font-size="10" fill="white" text-anchor="middle" dominant-baseline="middle">3 Bedroo</text><polygon points="487.19195269544366,721.2706975321371 563.057295063375,720.958643676103 468.2911190330774,589.3473249266624 424.171360554962,589.5288009515594" fill="#4CAF50" fill-opacity="0.7" stroke="#4CAF50" stroke-width="1"/><text x="485.6779318367145" y="655.2763667716155" font-size="10" fill="white" text-anchor="middle" dominant-baseline="middle">3 Bedroo</text><polygon points="563.057295063375,720.958643676103 638.9226374313064,720.6465898200688 512.4108775111929,589.1658489017652 468.2911190330774,589.3473249266624" fill="#4CAF50" fill-opacity="0.7" stroke="#4CAF50" stroke-width="1"/><text x="545.6704822597379" y="655.0296018311499" font-size="10" fill="white" text-anchor="middle" dominant-baseline="middle">Studio +</text><polygon points="650.9652339915965,708.5973070849109 651.2327301670664,633.4198200794988 519.5825219552503,534.8790226111272 519.4160357080302,581.6685427415827" fill="#4CAF50" fill-opacity="0.7" stroke="#4CAF50" stroke-width="1"/><text x="585.2991304554859" y="614.6411731292799" font-size="10" fill="white" text-anchor="middle" dominant-baseline="middle">1 Bedroo</text><polygon points="651.2327301670664,633.4198200794988 651.5002263425363,558.2423330740867 519.7490082024703,488.08950248067174 519.5825219552503,534.8790226111272" fill="#4CAF50" fill-opacity="0.7" stroke="#4CAF50" stroke-width="1"/><text x="585.5161216668308" y="553.6576695613461" font-size="10" fill="white" text-anchor="middle" dominant-baseline="middle">2 Bedroo</text><polygon points="651.5002263425363,558.2423330740867 651.7677225180062,483.0648460686745 519.9154944496905,441.2999823502163 519.7490082024703,488.08950248067174" fill="#4CAF50" fill-opacity="0.7" stroke="#4CAF50" stroke-width="1"/><text x="585.7331128781759" y="492.6741659934123" font-size="10" fill="white" text-anchor="middle" dominant-baseline="middle">2 Bedroo</text><polygon points="651.7677225180062,483.0648460686745 652.035218693476,407.88735906326235 520.0819806969106,394.5104622197608 519.9154944496905,441.2999823502163" fill="#4CAF50" fill-opacity="0.7" stroke="#4CAF50" stroke-width="1"/><text x="585.9501040895209" y="431.69066242547854" font-size="10" fill="white" text-anchor="middle" dominant-baseline="middle">2 Bedroo</text><polygon points="652.035218693476,407.88735906326235 652.302714868946,332.70987205785025 520.2484669441308,347.7209420893055 520.0819806969106,394.5104622197608" fill="#4CAF50" fill-opacity="0.7" stroke="#4CAF50" stroke-width="1"/><text x="586.1670953008659" y="370.70715885754475" font-size="10" fill="white" text-anchor="middle" dominant-baseline="middle">3 Bedroo</text><polygon points="652.302714868946,332.70987205785025 652.5702110444159,257.53238505243814 520.4149531913508,300.93142195885 520.2484669441308,347.7209420893055" fill="#4CAF50" fill-opacity="0.7" stroke="#4CAF50" stroke-width="1"/><text x="586.3840865122108" y="309.723655289611" font-size="10" fill="white" text-anchor="middle" dominant-baseline="middle">3 Bedroo</text><polygon points="652.5702110444159,257.53238505243814 652.8377072198859,182.35489804702604 520.5814394385709,254.14190182839462 520.4149531913508,300.93142195885" fill="#4CAF50" fill-opacity="0.7" stroke="#4CAF50" stroke-width="1"/><text x="586.6010777235558" y="248.7401517216772" font-size="10" fill="white" text-anchor="middle" dominant-baseline="middle">Studio +</text><polygon points="652.8377072198859,182.35489804702604 653.1052033953558,107.17741104161382 520.747925685791,207.3523816979391 520.5814394385709,254.14190182839462" fill="#4CAF50" fill-opacity="0.7" stroke="#4CAF50" stroke-width="1"/><text x="586.8180689349009" y="187.7566481537434" font-size="10" fill="white" text-anchor="middle" dominant-baseline="middle">1 Bedroo</text><polygon points="653.1052033953558,107.17741104161382 653.3726995708257,31.999924036201605 520.9144119330111,160.56286156748365 520.747925685791,207.3523816979391" fill="#4CAF50" fill-opacity="0.7" stroke="#4CAF50" stroke-width="1"/><text x="587.0350601462459" y="126.77314458580963" font-size="10" fill="white" text-anchor="middle" dominant-baseline="middle">2 Bedroo</text><polygon points="641.415803669216,20.09871402168642 565.5503893309203,20.722816818201295 469.8428328754334,153.51461637826958 513.9625875352733,153.1516675628584" fill="#4CAF50" fill-opacity="0.7" stroke="#4CAF50" stroke-width="1"/><text x="547.6929033527107" y="86.87195369525398" font-size="10" fill="white" text-anchor="middle" dominant-baseline="middle">2 Bedroo</text><polygon points="565.5503893309203,20.722816818201295 489.6849749926246,21.34691961471617 425.72307821559343,153.87756519368065 469.8428328754334,153.51461637826958" fill="#4CAF50" fill-opacity="0.7" stroke="#4CAF50" stroke-width="1"/><text x="487.7003188536429" y="87.3654795012169" font-size="10" fill="white" text-anchor="middle" dominant-baseline="middle">2 Bedroo</text><polygon points="489.6849749926246,21.34691961471617 413.8195606543289,21.971022411230933 381.6033235557535,154.24051400909173 425.72307821559343,153.87756519368065" fill="#4CAF50" fill-opacity="0.7" stroke="#4CAF50" stroke-width="1"/><text x="427.7077343545751" y="87.85900530717981" font-size="10" fill="white" text-anchor="middle" dominant-baseline="middle">3 Bedroo</text><polygon points="413.8195606543289,21.971022411230933 337.9541463160332,22.595125207745923 337.48356889591355,154.6034628245028 381.6033235557535,154.24051400909173" fill="#4CAF50" fill-opacity="0.7" stroke="#4CAF50" stroke-width="1"/><text x="367.71514985550726" y="88.35253111314285" font-size="10" fill="white" text-anchor="middle" dominant-baseline="middle">3 Bedroo</text><polygon points="337.9541463160332,22.595125207745923 262.08873197773744,23.219228004260685 293.3638142360736,154.96641163991387 337.48356889591355,154.6034628245028" fill="#4CAF50" fill-opacity="0.7" stroke="#4CAF50" stroke-width="1"/><text x="307.7225653564394" y="88.84605691910576" font-size="10" fill="white" text-anchor="middle" dominant-baseline="middle">Studio +</text><polygon points="262.08873197773744,23.219228004260685 186.2233176394418,23.84333080077556 249.24405957623364,155.32936045532495 293.3638142360736,154.96641163991387" fill="#4CAF50" fill-opacity="0.7" stroke="#4CAF50" stroke-width="1"/><text x="247.72998085737163" y="89.3395827250688" font-size="10" fill="white" text-anchor="middle" dominant-baseline="middle">1 Bedroo</text><polygon points="186.2233176394418,23.84333080077556 110.35790330114617,24.467433597290437 205.1243049163937,155.69230927073602 249.24405957623364,155.32936045532495" fill="#4CAF50" fill-opacity="0.7" stroke="#4CAF50" stroke-width="1"/><text x="187.73739635830384" y="89.83310853103171" font-size="10" fill="white" text-anchor="middle" dominant-baseline="middle">2 Bedroo</text><polygon points="110.35790330114617,24.467433597290437 34.492488962850416,25.0915363938052 161.00455025655376,156.0552580861472 205.1243049163937,155.69230927073602" fill="#4CAF50" fill-opacity="0.7" stroke="#4CAF50" stroke-width="1"/><text x="127.74481185923602" y="90.32663433699463" font-size="10" fill="white" text-anchor="middle" dominant-baseline="middle">2 Bedroo</text><polygon points="22.450037599352186,37.190173883754824 22.18257313158574,112.07931632989698 153.8329635919423,210.20451626326428 153.99947071131902,163.58308843239024" fill="#4CAF50" fill-opacity="0.7" stroke="#4CAF50" stroke-width="1"/><text x="88.1162612585498" y="130.76427372732655" font-size="10" fill="white" text-anchor="middle" dominant-baseline="middle">2 Bedroo</text><polygon points="22.18257313158574,112.07931632989698 21.91510866381924,186.96845877603914 153.6664564725656,256.82594409413826 153.8329635919423,210.20451626326428" fill="#4CAF50" fill-opacity="0.7" stroke="#4CAF50" stroke-width="1"/><text x="87.89927546497822" y="191.5195588658347" font-size="10" fill="white" text-anchor="middle" dominant-baseline="middle">3 Bedroo</text><polygon points="21.91510866381924,186.96845877603914 21.647644196052738,261.8576012221815 153.49994935318892,303.44737192501225 153.6664564725656,256.82594409413826" fill="#4CAF50" fill-opacity="0.7" stroke="#4CAF50" stroke-width="1"/><text x="87.68228967140666" y="252.2748440043428" font-size="10" fill="white" text-anchor="middle" dominant-baseline="middle">3 Bedroo</text><polygon points="21.647644196052738,261.8576012221815 21.380179728286237,336.7467436683237 153.33344223381224,350.0687997558863 153.49994935318892,303.44737192501225" fill="#4CAF50" fill-opacity="0.7" stroke="#4CAF50" stroke-width="1"/><text x="87.46530387783503" y="313.0301291428509" font-size="10" fill="white" text-anchor="middle" dominant-baseline="middle">Studio +</text><polygon points="21.380179728286237,336.7467436683237 21.112715260519792,411.6358861144659 153.16693511443552,396.6902275867602 153.33344223381224,350.0687997558863" fill="#4CAF50" fill-opacity="0.7" stroke="#4CAF50" stroke-width="1"/><text x="87.24831808426345" y="373.785414281359" font-size="10" fill="white" text-anchor="middle" dominant-baseline="middle">1 Bedroo</text><polygon points="21.112715260519792,411.6358861144659 20.84525079275329,486.52502856060823 153.00042799505883,443.3116554176343 153.16693511443552,396.6902275867602" fill="#4CAF50" fill-opacity="0.7" stroke="#4CAF50" stroke-width="1"/><text x="87.03133229069189" y="434.54069941986717" font-size="10" fill="white" text-anchor="middle" dominant-baseline="middle">2 Bedroo</text><polygon points="20.84525079275329,486.52502856060823 20.57778632498679,561.4141710067504 152.83392087568214,489.9330832485083 153.00042799505883,443.3116554176343" fill="#4CAF50" fill-opacity="0.7" stroke="#4CAF50" stroke-width="1"/><text x="86.81434649712025" y="495.2959845583753" font-size="10" fill="white" text-anchor="middle" dominant-baseline="middle">2 Bedroo</text><polygon points="20.57778632498679,561.4141710067504 20.310321857220288,636.3033134528927 152.66741375630545,536.5545110793823 152.83392087568214,489.9330832485083" fill="#4CAF50" fill-opacity="0.7" stroke="#4CAF50" stroke-width="1"/><text x="86.59736070354867" y="556.0512696968834" font-size="10" fill="white" text-anchor="middle" dominant-baseline="middle">2 Bedroo</text><polygon points="20.310321857220288,636.3033134528927 20.042857389453843,711.1924558990349 152.50090663692873,583.1759389102563 152.66741375630545,536.5545110793823" fill="#4CAF50" fill-opacity="0.7" stroke="#4CAF50" stroke-width="1"/><text x="86.38037490997706" y="616.8065548353916" font-size="10" fill="white" text-anchor="middle" dominant-baseline="middle">3 Bedroo</text><polygon points="218.8718986079591,534.3727772292159 297.04495403510197,534.0512311500365 328.0689655154881,433.92277539192463 311.2309396564658,433.99203456526135" fill="#4CAF50" fill-opacity="0.7" stroke="#4CAF50" stroke-width="1"/><text x="288.80418945375374" y="484.0847045841096" font-size="10" fill="white" text-anchor="middle" dominant-baseline="middle">3 Bedroo</text><polygon points="297.04495403510197,534.0512311500365 375.2180094622449,533.7296850708572 344.9069913745104,433.8535162185879 328.0689655154881,433.92277539192463" fill="#4CAF50" fill-opacity="0.7" stroke="#4CAF50" stroke-width="1"/><text x="336.30973009683635" y="483.88930195785156" font-size="10" fill="white" text-anchor="middle" dominant-baseline="middle">Studio +</text><polygon points="375.2180094622449,533.7296850708572 453.39106488938774,533.4081389916778 361.74501723353274,433.7842570452512 344.9069913745104,433.8535162185879" fill="#4CAF50" fill-opacity="0.7" stroke="#4CAF50" stroke-width="1"/><text x="383.81527073991896" y="483.69389933159357" font-size="10" fill="white" text-anchor="middle" dominant-baseline="middle">1 Bedroo</text><polygon points="463.6302484523193,521.3662741625398 463.8969421750614,446.41430955725883 364.0591760030843,400.6419858721406 363.95755168464575,429.20262179686625" fill="#4CAF50" fill-opacity="0.7" stroke="#4CAF50" stroke-width="1"/><text x="413.88597957877766" y="449.40629784720136" font-size="10" fill="white" text-anchor="middle" dominant-baseline="middle">2 Bedroo</text><polygon points="463.8969421750614,446.41430955725883 464.1636358978035,371.4623449519779 364.1608003215229,372.08134994741494 364.0591760030843,400.6419858721406" fill="#4CAF50" fill-opacity="0.7" stroke="#4CAF50" stroke-width="1"/><text x="414.070138599368" y="397.64999758219807" font-size="10" fill="white" text-anchor="middle" dominant-baseline="middle">2 Bedroo</text><polygon points="464.1636358978035,371.4623449519779 464.4303296205456,296.51038034669693 364.26242463996147,343.5207140226893 364.1608003215229,372.08134994741494" fill="#4CAF50" fill-opacity="0.7" stroke="#4CAF50" stroke-width="1"/><text x="414.2542976199584" y="345.8936973171948" font-size="10" fill="white" text-anchor="middle" dominant-baseline="middle">2 Bedroo</text><polygon points="464.4303296205456,296.51038034669693 464.6970233432877,221.55841574141596 364.3640489584001,314.9600780979636 364.26242463996147,343.5207140226893" fill="#4CAF50" fill-opacity="0.7" stroke="#4CAF50" stroke-width="1"/><text x="414.4384566405487" y="294.13739705219143" font-size="10" fill="white" text-anchor="middle" dominant-baseline="middle">3 Bedroo</text><polygon points="454.54325810169723,209.642372368417 376.37037269417124,210.28545745297117 345.3463173596615,310.5440588584325 362.1840881892584,310.40554383213913" fill="#4CAF50" fill-opacity="0.7" stroke="#4CAF50" stroke-width="1"/><text x="384.6110090861971" y="260.21935812798995" font-size="10" fill="white" text-anchor="middle" dominant-baseline="middle">3 Bedroo</text><polygon points="376.37037269417124,210.28545745297117 298.1974872866452,210.92854253752523 328.50854653006456,310.6825738847259 345.3463173596615,310.5440588584325" fill="#4CAF50" fill-opacity="0.7" stroke="#4CAF50" stroke-width="1"/><text x="337.10568096763564" y="260.61015818341366" font-size="10" fill="white" text-anchor="middle" dominant-baseline="middle">Studio +</text><polygon points="298.1974872866452,210.92854253752523 220.02460187911925,211.5716276220793 311.6707757004677,310.82108891101933 328.50854653006456,310.6825738847259" fill="#4CAF50" fill-opacity="0.7" stroke="#4CAF50" stroke-width="1"/><text x="289.60035284907417" y="261.0009582388374" font-size="10" fill="white" text-anchor="middle" dominant-baseline="middle">1 Bedroo</text><polygon points="209.7852811756403,223.65543175354503 209.5185285084592,298.3452724536311 309.3564004049286,343.91916374783034 309.4581907415178,315.4182152662401" fill="#4CAF50" fill-opacity="0.7" stroke="#4CAF50" stroke-width="1"/><text x="259.52960020763646" y="295.3345208053116" font-size="10" fill="white" text-anchor="middle" dominant-baseline="middle">2 Bedroo</text><polygon points="209.5185285084592,298.3452724536311 209.25177584127817,373.0351131537172 309.25461006833945,372.42011222942057 309.3564004049286,343.91916374783034" fill="#4CAF50" fill-opacity="0.7" stroke="#4CAF50" stroke-width="1"/><text x="259.34532870575134" y="346.9299153961498" font-size="10" fill="white" text-anchor="middle" dominant-baseline="middle">2 Bedroo</text><polygon points="209.25177584127817,373.0351131537172 208.98502317409708,447.72495385380324 309.15281973175024,400.92106071101074 309.25461006833945,372.42011222942057" fill="#4CAF50" fill-opacity="0.7" stroke="#4CAF50" stroke-width="1"/><text x="259.1610572038662" y="398.5253099869879" font-size="10" fill="white" text-anchor="middle" dominant-baseline="middle">2 Bedroo</text><polygon points="208.98502317409708,447.72495385380324 208.718270506916,522.4147945538894 309.0510293951611,429.42200919260097 309.15281973175024,400.92106071101074" fill="#4CAF50" fill-opacity="0.7" stroke="#4CAF50" stroke-width="1"/><text x="258.9767857019811" y="450.1207045778261" font-size="10" fill="white" text-anchor="middle" dominant-baseline="middle">3 Bedroo</text><rect x="460.27680488767237" y="528.9977458165916" width="40" height="48" fill="#9E9E9E" fill-opacity="0.7" stroke="#9E9E9E" stroke-width="1"/><text x="480.27680488767237" y="552.9977458165916" font-size="10" fill="white" text-anchor="middle" dominant-baseline="middle">Stair 1</text><rect x="461.5862124423355" y="161.00007537307397" width="40" height="48" fill="#9E9E9E" fill-opacity="0.7" stroke="#9E9E9E" stroke-width="1"/><text x="481.5862124423355" y="185.00007537307397" font-size="10" fill="white" text-anchor="middle" dominant-baseline="middle">Stair 2</text><rect x="473.3672084140565" y="403.0064206602176" width="32" height="32" fill="#9E9E9E" fill-opacity="0.7" stroke="#9E9E9E" stroke-width="1"/><text x="489.3672084140565" y="419.0064206602176" font-size="8" fill="white" text-anchor="middle" dominant-baseline="middle">Elevator</text><rect x="473.5237680129836" y="359.00669919414486" width="32" height="32" fill="#9E9E9E" fill-opacity="0.7" stroke="#9E9E9E" stroke-width="1"/><text x="489.5237680129836" y="375.00669919414486" font-size="8" fill="white" text-anchor="middle" dominant-baseline="middle">Elevator</text><rect x="473.68032761191074" y="315.0069777280721" width="32" height="32" fill="#9E9E9E" fill-opacity="0.7" stroke="#9E9E9E" stroke-width="1"/><text x="489.68032761191074" y="331.0069777280721" font-size="8" fill="white" text-anchor="middle" dominant-baseline="middle">Elevator</text><rect x="482.4429385402088" y="283.0165670835414" width="20" height="20" fill="#FF9800" fill-opacity="0.7" stroke="#FF9800" stroke-width="1"/><text x="492.4429385402088" y="293.0165670835414" font-size="5" fill="white" text-anchor="middle" dominant-baseline="middle">Trash</text><rect x="482.55680006670127" y="251.01676965367034" width="20" height="20" fill="#FF9800" fill-opacity="0.7" stroke="#FF9800" stroke-width="1"/><text x="492.55680006670127" y="261.01676965367034" font-size="5" fill="white" text-anchor="middle" dominant-baseline="middle">Mech</text><rect x="481.69564106736357" y="493.03805974715846" width="20" height="20" fill="#FF9800" fill-opacity="0.7" stroke="#FF9800" stroke-width="1"/><text x="491.69564106736357" y="503.03805974715846" font-size="5" fill="white" text-anchor="middle" dominant-baseline="middle">Stor</text><rect x="481.809502593856" y="461.0382623172874" width="20" height="20" fill="#FF9800" fill-opacity="0.7" stroke="#FF9800" stroke-width="1"/><text x="491.809502593856" y="471.0382623172874" font-size="5" fill="white" text-anchor="middle" dominant-baseline="middle">Elec</text><rect x="160" y="535.1923793672979" width="40" height="48" fill="#FF9800" fill-opacity="0.7" stroke="#FF9800" stroke-width="1"/><text x="180" y="559.1923793672979" font-size="10" fill="white" text-anchor="middle" dominant-baseline="middle">Misc</text><rect x="160" y="471.1923793672979" width="40" height="48" fill="#FF9800" fill-opacity="0.7" stroke="#FF9800" stroke-width="1"/><text x="180" y="495.1923793672979" font-size="10" fill="white" text-anchor="middle" dominant-baseline="middle">Misc</text><rect x="160" y="407.1923793672979" width="40" height="48" fill="#FF9800" fill-opacity="0.7" stroke="#FF9800" stroke-width="1"/><text x="180" y="431.1923793672979" font-size="10" fill="white" text-anchor="middle" dominant-baseline="middle">Misc</text><rect x="160" y="343.1923793672979" width="40" height="48" fill="#FF9800" fill-opacity="0.7" stroke="#FF9800" stroke-width="1"/><text x="180" y="367.1923793672979" font-size="10" fill="white" text-anchor="middle" dominant-baseline="middle">Misc</text><rect x="160" y="279.1923793672979" width="40" height="48" fill="#FF9800" fill-opacity="0.7" stroke="#FF9800" stroke-width="1"/><text x="180" y="303.1923793672979" font-size="10" fill="white" text-anchor="middle" dominant-baseline="middle">Misc</text><rect x="160" y="215.19237936729792" width="40" height="48" fill="#FF9800" fill-opacity="0.7" stroke="#FF9800" stroke-width="1"/><text x="180" y="239.19237936729792" font-size="10" fill="white" text-anchor="middle" dominant-baseline="middle">Misc</text><text x="10" y="15" font-size="12" fill="white">Floor 1 (RESIDENTIAL_TYPICAL)</text></svg>