<svg xmlns="http://www.w3.org/2000/svg" width="673.4153976432603" height="743.1923793672979" viewBox="0 0 673.4153976432603 743.1923793672979"><rect width="100%" height="100%" fill="#1a1a2e"/><path d="M 20 723.1923793672979 L 650.9225359191619 720.5972311211126 L 653.4153976432603 20 L 22.49289498880603 25.190250415491732 Z" fill="none" stroke="#fff" stroke-width="2"/><rect x="294.9028212562015" y="386.2446189458504" width="40" height="48" fill="#9E9E9E" fill-opacity="0.7" stroke="#9E9E9E" stroke-width="1"/><text x="314.9028212562015" y="410.2446189458504" font-size="10" fill="white" text-anchor="middle" dominant-baseline="middle">Stair 1</text><rect x="338.9028212562015" y="386.2446189458504" width="40" height="48" fill="#9E9E9E" fill-opacity="0.7" stroke="#9E9E9E" stroke-width="1"/><text x="358.9028212562015" y="410.2446189458504" font-size="10" fill="white" text-anchor="middle" dominant-baseline="middle">Stair 2</text><rect x="298.9028212562015" y="350.2446189458504" width="32" height="32" fill="#9E9E9E" fill-opacity="0.7" stroke="#9E9E9E" stroke-width="1"/><text x="314.9028212562015" y="366.2446189458504" font-size="8" fill="white" text-anchor="middle" dominant-baseline="middle">Elevator</text><rect x="342.9028212562015" y="350.2446189458504" width="32" height="32" fill="#9E9E9E" fill-opacity="0.7" stroke="#9E9E9E" stroke-width="1"/><text x="358.9028212562015" y="366.2446189458504" font-size="8" fill="white" text-anchor="middle" dominant-baseline="middle">Elevator</text><rect x="298.9028212562015" y="314.2446189458504" width="32" height="32" fill="#9E9E9E" fill-opacity="0.7" stroke="#9E9E9E" stroke-width="1"/><text x="314.9028212562015" y="330.2446189458504" font-size="8" fill="white" text-anchor="middle" dominant-baseline="middle">Elevator</text><rect x="378.9028212562015" y="434.2446189458504" width="20" height="20" fill="#FF9800" fill-opacity="0.7" stroke="#FF9800" stroke-width="1"/><text x="388.9028212562015" y="444.2446189458504" font-size="5" fill="white" text-anchor="middle" dominant-baseline="middle">Trash</text><rect x="378.9028212562015" y="290.2446189458504" width="20" height="20" fill="#FF9800" fill-opacity="0.7" stroke="#FF9800" stroke-width="1"/><text x="388.9028212562015" y="300.2446189458504" font-size="5" fill="white" text-anchor="middle" dominant-baseline="middle">Mech</text><rect x="274.9028212562015" y="434.2446189458504" width="20" height="20" fill="#FF9800" fill-opacity="0.7" stroke="#FF9800" stroke-width="1"/><text x="284.9028212562015" y="444.2446189458504" font-size="5" fill="white" text-anchor="middle" dominant-baseline="middle">Stor</text><rect x="274.9028212562015" y="290.2446189458504" width="20" height="20" fill="#FF9800" fill-opacity="0.7" stroke="#FF9800" stroke-width="1"/><text x="284.9028212562015" y="300.2446189458504" font-size="5" fill="white" text-anchor="middle" dominant-baseline="middle">Elec</text><polygon points="77.76626582479929,722.9547717135699 122.69558368853205,722.7699657606703 286.7923409723652,454.2446189458504 276.3137639458229,454.2446189458504" fill="#4CAF50" fill-opacity="0.7" stroke="#4CAF50" stroke-width="1"/><text x="190.89198860787985" y="588.5534938414853" font-size="10" fill="white" text-anchor="middle" dominant-baseline="middle">2 Bedroo</text><polygon points="122.69558368853205,722.7699657606703 167.62490155226484,722.5851598077707 297.2819729764883,454.2446189458504 286.7923409723652,454.2446189458504" fill="#4CAF50" fill-opacity="0.7" stroke="#4CAF50" stroke-width="1"/><text x="218.5986997974126" y="588.4610908650354" font-size="10" fill="white" text-anchor="middle" dominant-baseline="middle">2 Bedroo</text><polygon points="167.62490155226484,722.5851598077707 212.5542194159976,722.4003538548711 307.78267746205216,454.2446189458504 297.2819729764883,454.2446189458504" fill="#4CAF50" fill-opacity="0.7" stroke="#4CAF50" stroke-width="1"/><text x="246.31094285170073" y="588.3686878885857" font-size="10" fill="white" text-anchor="middle" dominant-baseline="middle">2 Bedroo</text><polygon points="212.5542194159976,722.4003538548711 267.11124825053025,722.1759466263502 320.54844388622143,454.2446189458504 307.78267746205216,454.2446189458504" fill="#4CAF50" fill-opacity="0.7" stroke="#4CAF50" stroke-width="1"/><text x="276.99914725370036" y="588.2663845932304" font-size="10" fill="white" text-anchor="middle" dominant-baseline="middle">3 Bedroo</text><polygon points="267.11124825053025,722.1759466263502 379.4345429098622,721.7139317441012 346.8825277651206,454.2446189458504 320.54844388622143,454.2446189458504" fill="#4CAF50" fill-opacity="0.7" stroke="#4CAF50" stroke-width="1"/><text x="328.4941907029336" y="588.094779065538" font-size="10" fill="white" text-anchor="middle" dominant-baseline="middle">3 Bedroo</text><polygon points="379.4345429098622,721.7139317441012 424.363860773595,721.5291257912015 357.43566797534226,454.2446189458504 346.8825277651206,454.2446189458504" fill="#4CAF50" fill-opacity="0.7" stroke="#4CAF50" stroke-width="1"/><text x="377.02914985598" y="587.9330738567509" font-size="10" fill="white" text-anchor="middle" dominant-baseline="middle">2 Bedroo</text><polygon points="424.363860773595,721.5291257912015 469.29317863732774,721.344319838302 367.99998140128224,454.2446189458504 357.43566797534226,454.2446189458504" fill="#4CAF50" fill-opacity="0.7" stroke="#4CAF50" stroke-width="1"/><text x="404.7731721968868" y="587.8406708803011" font-size="10" fill="white" text-anchor="middle" dominant-baseline="middle">2 Bedroo</text><polygon points="469.29317863732774,721.344319838302 514.2224965010605,721.1595138854024 378.575485796927,454.2446189458504 367.99998140128224,454.2446189458504" fill="#4CAF50" fill-opacity="0.7" stroke="#4CAF50" stroke-width="1"/><text x="432.52278558414935" y="587.7482679038512" font-size="10" fill="white" text-anchor="middle" dominant-baseline="middle">2 Bedroo</text><polygon points="514.2224965010605,721.1595138854024 650.9225359191619,720.5972311211126 651.0299234905542,690.4168827901105 398.9028212562015,435.04302194269576 398.9028212562015,454.2446189458504 378.575485796927,454.2446189458504" fill="#4CAF50" fill-opacity="0.7" stroke="#4CAF50" stroke-width="1"/><text x="498.75934737001774" y="579.2843146051703" font-size="10" fill="white" text-anchor="middle" dominant-baseline="middle">3 Bedroo</text><polygon points="651.0299234905542,690.4168827901105 651.1897911153118,645.4874692697549 398.9028212562015,426.1477658936111 398.9028212562015,435.04302194269576" fill="#4CAF50" fill-opacity="0.7" stroke="#4CAF50" stroke-width="1"/><text x="525.0063392795672" y="549.2737849740431" font-size="10" fill="white" text-anchor="middle" dominant-baseline="middle">2 Bedroo</text><polygon points="651.1897911153118,645.4874692697549 651.3496587400693,600.5580557493993 398.9028212562015,417.2615547022682 398.9028212562015,426.1477658936111" fill="#4CAF50" fill-opacity="0.7" stroke="#4CAF50" stroke-width="1"/><text x="525.086273091946" y="522.3637114037583" font-size="10" fill="white" text-anchor="middle" dominant-baseline="middle">2 Bedroo</text><polygon points="651.3496587400693,600.5580557493993 651.509526364827,555.6286422290435 398.9028212562015,408.38437458021383 398.9028212562015,417.2615547022682" fill="#4CAF50" fill-opacity="0.7" stroke="#4CAF50" stroke-width="1"/><text x="525.1662069043248" y="495.45815681523123" font-size="10" fill="white" text-anchor="middle" dominant-baseline="middle">2 Bedroo</text><polygon points="651.509526364827,555.6286422290435 651.703651337747,501.07149724004023 398.9028212562015,397.61706301523475 398.9028212562015,408.38437458021383" fill="#4CAF50" fill-opacity="0.7" stroke="#4CAF50" stroke-width="1"/><text x="525.2547050537443" y="465.6753942661331" font-size="10" fill="white" text-anchor="middle" dominant-baseline="middle">3 Bedroo</text><polygon points="651.703651337747,501.07149724004023 652.103320399641,388.7479634391511 398.9028212562015,375.49083004438995 398.9028212562015,397.61706301523475" fill="#4CAF50" fill-opacity="0.7" stroke="#4CAF50" stroke-width="1"/><text x="525.4031535624478" y="415.731838434704" font-size="10" fill="white" text-anchor="middle" dominant-baseline="middle">3 Bedroo</text><polygon points="652.103320399641,388.7479634391511 652.2631880243986,343.81854991879544 398.9028212562015,366.6560400837106 398.9028212562015,375.49083004438995" fill="#4CAF50" fill-opacity="0.7" stroke="#4CAF50" stroke-width="1"/><text x="525.5430377341106" y="368.67834587151174" font-size="10" fill="white" text-anchor="middle" dominant-baseline="middle">2 Bedroo</text><polygon points="652.2631880243986,343.81854991879544 652.4230556491561,298.8891363984397 398.9028212562015,357.83020293639964 398.9028212562015,366.6560400837106" fill="#4CAF50" fill-opacity="0.7" stroke="#4CAF50" stroke-width="1"/><text x="525.6229715464895" y="341.7984823343363" font-size="10" fill="white" text-anchor="middle" dominant-baseline="middle">2 Bedroo</text><polygon points="652.4230556491561,298.8891363984397 652.5829232739138,253.959722878084 398.9028212562015,349.0133050007287 398.9028212562015,357.83020293639964" fill="#4CAF50" fill-opacity="0.7" stroke="#4CAF50" stroke-width="1"/><text x="525.7029053588683" y="314.923091803413" font-size="10" fill="white" text-anchor="middle" dominant-baseline="middle">2 Bedroo</text><polygon points="652.5829232739138,253.959722878084 652.7770482468338,199.4025778890807 398.9028212562015,338.3190700094456 398.9028212562015,349.0133050007287" fill="#4CAF50" fill-opacity="0.7" stroke="#4CAF50" stroke-width="1"/><text x="525.7914035082877" y="285.17366894433474" font-size="10" fill="white" text-anchor="middle" dominant-baseline="middle">3 Bedroo</text><polygon points="652.7770482468338,199.4025778890807 653.1767173087278,87.07904408819161 398.9028212562015,316.34286460619245 398.9028212562015,338.3190700094456" fill="#4CAF50" fill-opacity="0.7" stroke="#4CAF50" stroke-width="1"/><text x="525.9398520169912" y="235.28588914822762" font-size="10" fill="white" text-anchor="middle" dominant-baseline="middle">3 Bedroo</text><polygon points="653.1767173087278,87.07904408819161 653.3365849334855,42.14963056783597 398.9028212562015,307.5679262895348 398.9028212562015,316.34286460619245" fill="#4CAF50" fill-opacity="0.7" stroke="#4CAF50" stroke-width="1"/><text x="526.0797361886541" y="188.28486638793868" font-size="10" fill="white" text-anchor="middle" dominant-baseline="middle">2 Bedroo</text><polygon points="653.3365849334855,42.14963056783597 653.4153976432603,20 585.7080635357955,20.556990783344418 394.91461420303625,290.2446189458504 398.9028212562015,290.2446189458504 398.9028212562015,307.5679262895348" fill="#4CAF50" fill-opacity="0.7" stroke="#4CAF50" stroke-width="1"/><text x="514.1967171379968" y="161.79396425540267" font-size="10" fill="white" text-anchor="middle" dominant-baseline="middle">2 Bedroo</text><polygon points="585.7080635357955,20.556990783344418 531.1524191603723,21.005789890517804 382.2522123556483,290.2446189458504 394.91461420303625,290.2446189458504" fill="#4CAF50" fill-opacity="0.7" stroke="#4CAF50" stroke-width="1"/><text x="473.5068273137131" y="155.5130046413908" font-size="10" fill="white" text-anchor="middle" dominant-baseline="middle">3 Bedroo</text><polygon points="531.1524191603723,21.005789890517804 418.8319748580307,21.92978805234543 356.0804009727517,290.2446189458504 382.2522123556483,290.2446189458504" fill="#4CAF50" fill-opacity="0.7" stroke="#4CAF50" stroke-width="1"/><text x="422.0792518367008" y="155.856203958641" font-size="10" fill="white" text-anchor="middle" dominant-baseline="middle">3 Bedroo</text><polygon points="418.8319748580307,21.92978805234543 373.903797137094,22.299387317076594 345.5729780350536,290.2446189458504 356.0804009727517,290.2446189458504" fill="#4CAF50" fill-opacity="0.7" stroke="#4CAF50" stroke-width="1"/><text x="373.5972877507325" y="156.1796033152807" font-size="10" fill="white" text-anchor="middle" dominant-baseline="middle">2 Bedroo</text><polygon points="373.903797137094,22.299387317076594 328.97561941615726,22.668986581807644 335.04333652470655,290.2446189458504 345.5729780350536,290.2446189458504" fill="#4CAF50" fill-opacity="0.7" stroke="#4CAF50" stroke-width="1"/><text x="345.8739327782528" y="156.36440294764623" font-size="10" fill="white" text-anchor="middle" dominant-baseline="middle">2 Bedroo</text><polygon points="328.97561941615726,22.668986581807644 284.0474416952206,23.03858584653881 324.49140589337514,290.2446189458504 335.04333652470655,290.2446189458504" fill="#4CAF50" fill-opacity="0.7" stroke="#4CAF50" stroke-width="1"/><text x="318.1394508823649" y="156.54920258001175" font-size="10" fill="white" text-anchor="middle" dominant-baseline="middle">2 Bedroo</text><polygon points="284.0474416952206,23.03858584653881 229.49179731979746,23.487384953712194 311.6482799755361,290.2446189458504 324.49140589337514,290.2446189458504" fill="#4CAF50" fill-opacity="0.7" stroke="#4CAF50" stroke-width="1"/><text x="287.4197312209823" y="156.7538021729879" font-size="10" fill="white" text-anchor="middle" dominant-baseline="middle">3 Bedroo</text><polygon points="229.49179731979746,23.487384953712194 117.17135301745577,24.411383115539934 285.10219227787354,290.2446189458504 311.6482799755361,290.2446189458504" fill="#4CAF50" fill-opacity="0.7" stroke="#4CAF50" stroke-width="1"/><text x="235.85340564766574" y="157.0970014902382" font-size="10" fill="white" text-anchor="middle" dominant-baseline="middle">3 Bedroo</text><polygon points="117.17135301745577,24.411383115539934 22.49289498880603,25.190250415491732 22.349653335362802,65.29742681357129 274.9028212562015,311.7437947513517 274.9028212562015,290.2446189458504 285.10219227787354,290.2446189458504" fill="#4CAF50" fill-opacity="0.7" stroke="#4CAF50" stroke-width="1"/><text x="166.1536226886502" y="167.85534883127593" font-size="10" fill="white" text-anchor="middle" dominant-baseline="middle">2 Bedroo</text><polygon points="22.349653335362802,65.29742681357129 22.154804034381527,119.85456922046569 274.9028212562015,322.5280767382287 274.9028212562015,311.7437947513517" fill="#4CAF50" fill-opacity="0.7" stroke="#4CAF50" stroke-width="1"/><text x="148.57752497053684" y="204.85596688090436" font-size="10" fill="white" text-anchor="middle" dominant-baseline="middle">3 Bedroo</text><polygon points="22.154804034381527,119.85456922046569 21.75364370883176,232.17809770524843 274.9028212562015,344.68902008787137 274.9028212562015,322.5280767382287" fill="#4CAF50" fill-opacity="0.7" stroke="#4CAF50" stroke-width="1"/><text x="148.42852256390407" y="254.81244093795357" font-size="10" fill="white" text-anchor="middle" dominant-baseline="middle">3 Bedroo</text><polygon points="21.75364370883176,232.17809770524843 21.593179578611853,277.10750909916163 274.9028212562015,353.5376083415694 274.9028212562015,344.68902008787137" fill="#4CAF50" fill-opacity="0.7" stroke="#4CAF50" stroke-width="1"/><text x="148.28811644996165" y="301.8780588084627" font-size="10" fill="white" text-anchor="middle" dominant-baseline="middle">2 Bedroo</text><polygon points="21.593179578611853,277.10750909916163 21.432715448391946,322.03692049307483 274.9028212562015,362.377194911801 274.9028212562015,353.5376083415694" fill="#4CAF50" fill-opacity="0.7" stroke="#4CAF50" stroke-width="1"/><text x="148.2078843848517" y="328.7648082114017" font-size="10" fill="white" text-anchor="middle" dominant-baseline="middle">2 Bedroo</text><polygon points="21.432715448391946,322.03692049307483 21.27225131817204,366.966331886988 274.9028212562015,371.207793527724 274.9028212562015,362.377194911801" fill="#4CAF50" fill-opacity="0.7" stroke="#4CAF50" stroke-width="1"/><text x="148.12765231974174" y="355.64706020489695" font-size="10" fill="white" text-anchor="middle" dominant-baseline="middle">2 Bedroo</text><polygon points="21.27225131817204,366.966331886988 21.077402017190764,421.52347429388254 274.9028212562015,381.9185997132623 274.9028212562015,371.207793527724" fill="#4CAF50" fill-opacity="0.7" stroke="#4CAF50" stroke-width="1"/><text x="148.03882396194143" y="385.4040498554642" font-size="10" fill="white" text-anchor="middle" dominant-baseline="middle">3 Bedroo</text><polygon points="21.077402017190764,421.52347429388254 20.676241691640996,533.8470027786652 274.9028212562015,403.9286975309934 274.9028212562015,381.9185997132623" fill="#4CAF50" fill-opacity="0.7" stroke="#4CAF50" stroke-width="1"/><text x="147.88982155530869" y="435.3044435792009" font-size="10" fill="white" text-anchor="middle" dominant-baseline="middle">3 Bedroo</text><polygon points="20.676241691640996,533.8470027786652 20.51577756142109,578.7764141725785 274.9028212562015,412.71710844643223 274.9028212562015,403.9286975309934" fill="#4CAF50" fill-opacity="0.7" stroke="#4CAF50" stroke-width="1"/><text x="147.74941544136627" y="482.31730573216737" font-size="10" fill="white" text-anchor="middle" dominant-baseline="middle">2 Bedroo</text><polygon points="20.51577756142109,578.7764141725785 20.355313431201182,623.7058255664916 274.9028212562015,421.4966093267029 274.9028212562015,412.71710844643223" fill="#4CAF50" fill-opacity="0.7" stroke="#4CAF50" stroke-width="1"/><text x="147.6691833762563" y="509.1739893780513" font-size="10" fill="white" text-anchor="middle" dominant-baseline="middle">2 Bedroo</text><polygon points="20.355313431201182,623.7058255664916 20,723.1923793672979 77.76626582479929,722.9547717135699 276.3137639458229,454.2446189458504 274.9028212562015,454.2446189458504 274.9028212562015,421.4966093267029" fill="#4CAF50" fill-opacity="0.7" stroke="#4CAF50" stroke-width="1"/><text x="157.37349761903772" y="566.6398039776271" font-size="10" fill="white" text-anchor="middle" dominant-baseline="middle">2 Bedroo</text><text x="10" y="15" font-size="12" fill="white">Floor 1 (RESIDENTIAL_TYPICAL)</text></svg>