<svg xmlns="http://www.w3.org/2000/svg" width="511.0308577993344" height="629.9637644711447" viewBox="0 0 511.0308577993344 629.9637644711447"><rect width="100%" height="100%" fill="#1a1a2e"/><path d="M 329.80897157127464 609.9637644711447 L 420.9538857812926 483.8158077032972 L 349.82552733341527 430.64909574151176 L 384.0626730159686 393.26337819855337 L 362.43979075354645 375.48456287895044 L 491.0308577993344 200.68773693258856 L 265.34188312520996 20 L 20 364.26610059575364 Z" fill="none" stroke="#fff" stroke-width="2"/><rect x="223.27112264769247" y="324.5065672860178" width="40" height="48" fill="#9E9E9E" fill-opacity="0.7" stroke="#9E9E9E" stroke-width="1"/><text x="243.27112264769247" y="348.5065672860178" font-size="10" fill="white" text-anchor="middle" dominant-baseline="middle">Stair 1</text><rect x="267.27112264769244" y="324.5065672860178" width="40" height="48" fill="#9E9E9E" fill-opacity="0.7" stroke="#9E9E9E" stroke-width="1"/><text x="287.27112264769244" y="348.5065672860178" font-size="10" fill="white" text-anchor="middle" dominant-baseline="middle">Stair 2</text><rect x="227.27112264769247" y="288.5065672860178" width="32" height="32" fill="#9E9E9E" fill-opacity="0.7" stroke="#9E9E9E" stroke-width="1"/><text x="243.27112264769247" y="304.5065672860178" font-size="8" fill="white" text-anchor="middle" dominant-baseline="middle">Elevator</text><rect x="271.27112264769244" y="288.5065672860178" width="32" height="32" fill="#9E9E9E" fill-opacity="0.7" stroke="#9E9E9E" stroke-width="1"/><text x="287.27112264769244" y="304.5065672860178" font-size="8" fill="white" text-anchor="middle" dominant-baseline="middle">Elevator</text><rect x="227.27112264769247" y="252.5065672860178" width="32" height="32" fill="#9E9E9E" fill-opacity="0.7" stroke="#9E9E9E" stroke-width="1"/><text x="243.27112264769247" y="268.5065672860178" font-size="8" fill="white" text-anchor="middle" dominant-baseline="middle">Elevator</text><rect x="307.27112264769244" y="372.5065672860178" width="20" height="20" fill="#FF9800" fill-opacity="0.7" stroke="#FF9800" stroke-width="1"/><text x="317.27112264769244" y="382.5065672860178" font-size="5" fill="white" text-anchor="middle" dominant-baseline="middle">Trash</text><rect x="307.27112264769244" y="228.5065672860178" width="20" height="20" fill="#FF9800" fill-opacity="0.7" stroke="#FF9800" stroke-width="1"/><text x="317.27112264769244" y="238.5065672860178" font-size="5" fill="white" text-anchor="middle" dominant-baseline="middle">Mech</text><rect x="203.27112264769247" y="372.5065672860178" width="20" height="20" fill="#FF9800" fill-opacity="0.7" stroke="#FF9800" stroke-width="1"/><text x="213.27112264769247" y="382.5065672860178" font-size="5" fill="white" text-anchor="middle" dominant-baseline="middle">Stor</text><rect x="203.27112264769247" y="228.5065672860178" width="20" height="20" fill="#FF9800" fill-opacity="0.7" stroke="#FF9800" stroke-width="1"/><text x="213.27112264769247" y="238.5065672860178" font-size="5" fill="white" text-anchor="middle" dominant-baseline="middle">Elec</text><polygon points="329.80897157127464,609.9637644711447 369.18823015613543,555.4614035597456 300.0579549687747,392.5065672860178 282.94344330479834,392.5065672860178" fill="#4CAF50" fill-opacity="0.7" stroke="#4CAF50" stroke-width="1"/><text x="320.49965000024577" y="487.6095756507315" font-size="10" fill="white" text-anchor="middle" dominant-baseline="middle">Studio +</text><polygon points="369.18823015613543,555.4614035597456 420.9538857812926,483.8158077032972 349.82552733341527,430.64909574151176 366.39074156802576,412.5604844374063 327.27112264769244,373.0794184393737 327.27112264769244,392.5065672860178 300.0579549687747,392.5065672860178" fill="#4CAF50" fill-opacity="0.7" stroke="#4CAF50" stroke-width="1"/><text x="351.56551215757554" y="434.36847777905285" font-size="10" fill="white" text-anchor="middle" dominant-baseline="middle">1 Bedroo</text><polygon points="366.39074156802576,412.5604844374063 384.0626730159686,393.26337819855337 362.43979075354645,375.48456287895044 400.07490818484735,324.326273098467 327.2711226476925,316.8626333041764 327.27112264769244,373.0794184393737" fill="#4CAF50" fill-opacity="0.7" stroke="#4CAF50" stroke-width="1"/><text x="361.2517264696288" y="365.9294583928212" font-size="10" fill="white" text-anchor="middle" dominant-baseline="middle">2 Bedroo</text><polygon points="400.07490818484735,324.326273098467 469.8041338119558,229.54171616671465 327.27112264769244,285.9637282556702 327.2711226476925,316.8626333041764" fill="#4CAF50" fill-opacity="0.7" stroke="#4CAF50" stroke-width="1"/><text x="381.105321823047" y="289.1735877062571" font-size="10" fill="white" text-anchor="middle" dominant-baseline="middle">2 Bedroo</text><polygon points="469.8041338119558,229.54171616671465 491.0308577993344,200.68773693258856 295.9104976717738,44.473387729987735 274.7151655154563,228.5065672860178 327.27112264769244,228.5065672860178 327.27112264769244,285.9637282556702" fill="#4CAF50" fill-opacity="0.7" stroke="#4CAF50" stroke-width="1"/><text x="364.33381668231755" y="202.94661727616614" font-size="10" fill="white" text-anchor="middle" dominant-baseline="middle">3 Bedroo</text><polygon points="295.9104976717738,44.473387729987735 265.34188312520996,20 249.0445159734288,42.86862303269129 260.2995490130131,228.5065672860178 274.7151655154563,228.5065672860178" fill="#4CAF50" fill-opacity="0.7" stroke="#4CAF50" stroke-width="1"/><text x="269.0623222597764" y="112.87102906694292" font-size="10" fill="white" text-anchor="middle" dominant-baseline="middle">Studio +</text><polygon points="249.0445159734288,42.86862303269129 200.26544000123246,111.3158936808984 238.5105023810179,228.5065672860178 260.2995490130131,228.5065672860178" fill="#4CAF50" fill-opacity="0.7" stroke="#4CAF50" stroke-width="1"/><text x="237.03000184217305" y="152.79941282140635" font-size="10" fill="white" text-anchor="middle" dominant-baseline="middle">1 Bedroo</text><polygon points="200.26544000123246,111.3158936808984 131.9747336401576,207.14207258838837 203.27112264769247,262.4287557341178 203.27112264769247,228.5065672860178 238.5105023810179,228.5065672860178" fill="#4CAF50" fill-opacity="0.7" stroke="#4CAF50" stroke-width="1"/><text x="195.45858426355858" y="207.57997131508802" font-size="10" fill="white" text-anchor="middle" dominant-baseline="middle">2 Bedroo</text><polygon points="131.9747336401576,207.14207258838837 63.684027279082756,302.9682514958784 203.27112264769247,308.18808763267475 203.27112264769247,262.4287557341178" fill="#4CAF50" fill-opacity="0.7" stroke="#4CAF50" stroke-width="1"/><text x="150.55025155365632" y="270.18179186276484" font-size="10" fill="white" text-anchor="middle" dominant-baseline="middle">2 Bedroo</text><polygon points="63.684027279082756,302.9682514958784 20,364.26610059575364 53.22036720223636,390.61190515162446 203.27112264769244,333.92799267653055 203.27112264769247,308.18808763267475" fill="#4CAF50" fill-opacity="0.7" stroke="#4CAF50" stroke-width="1"/><text x="108.68932795534081" y="339.99246751049236" font-size="10" fill="white" text-anchor="middle" dominant-baseline="middle">2 Bedroo</text><polygon points="53.22036720223636,390.61190515162446 165.17289754208542,479.397181542859 216.67129669065415,392.5065672860178 203.27112264769247,392.5065672860178 203.27112264769244,333.92799267653055" fill="#4CAF50" fill-opacity="0.7" stroke="#4CAF50" stroke-width="1"/><text x="168.3213613460722" y="397.7900427886099" font-size="10" fill="white" text-anchor="middle" dominant-baseline="middle">3 Bedroo</text><polygon points="165.17289754208542,479.397181542859 329.80897157127464,609.9637644711447 329.80897157127464,609.9637644711447 282.94344330479834,392.5065672860178 216.67129669065415,392.5065672860178" fill="#4CAF50" fill-opacity="0.7" stroke="#4CAF50" stroke-width="1"/><text x="264.88111613601745" y="496.8675690114368" font-size="10" fill="white" text-anchor="middle" dominant-baseline="middle">3 Bedroo</text><text x="10" y="15" font-size="12" fill="white">Floor 1 (RESIDENTIAL_TYPICAL)</text></svg>