<svg xmlns="http://www.w3.org/2000/svg" width="511.0308577993344" height="629.9637644711447" viewBox="0 0 511.0308577993344 629.9637644711447"><rect width="100%" height="100%" fill="#1a1a2e"/><path d="M 329.80897157127464 609.9637644711447 L 420.9538857812926 483.8158077032972 L 349.82552733341527 430.64909574151176 L 384.0626730159686 393.26337819855337 L 362.43979075354645 375.48456287895044 L 491.0308577993344 200.68773693258856 L 265.34188312520996 20 L 20 364.26610059575364 Z" fill="none" stroke="#fff" stroke-width="2"/><polygon points="333.45476813967537,604.9178462004309 417.3080892128919,488.86172597401105 387.7533414615376,341.8697761148775 313.24246001531213,461.4279021815962" fill="#4CAF50" fill-opacity="0.7" stroke="#4CAF50" stroke-width="1"/><text x="362.93966470735427" y="474.2693126177289" font-size="10" fill="white" text-anchor="middle" dominant-baseline="middle">Studio +</text><polygon points="367.58343343537797,368.49268984109597 426.73532427644045,288.0861499057695 317.74147603023465,267.49095656365296 284.7569820258393,312.32754583747965" fill="#4CAF50" fill-opacity="0.7" stroke="#4CAF50" stroke-width="1"/><text x="349.2043039419731" y="309.0993355369995" font-size="10" fill="white" text-anchor="middle" dominant-baseline="middle">1 Bedroo</text><polygon points="426.73532427644045,288.0861499057695 485.88721511750293,207.67960997044304 350.72597003463,222.6543672898262 317.74147603023465,267.49095656365296" fill="#4CAF50" fill-opacity="0.7" stroke="#4CAF50" stroke-width="1"/><text x="395.27249636470196" y="246.4777709324229" font-size="10" fill="white" text-anchor="middle" dominant-baseline="middle">2 Bedroo</text><polygon points="482.00329881236945,193.460227455285 412.7920132456379,138.04932146262456 329.9540265455788,199.82910124642558 350.8664760939238,216.57171434067794" fill="#4CAF50" fill-opacity="0.7" stroke="#4CAF50" stroke-width="1"/><text x="393.9039536743775" y="186.9775911262533" font-size="10" fill="white" text-anchor="middle" dominant-baseline="middle">2 Bedroo</text><polygon points="412.7920132456379,138.04932146262456 343.58072767890644,82.638415469964 309.04157699723385,183.08648815217327 329.9540265455788,199.82910124642558" fill="#4CAF50" fill-opacity="0.7" stroke="#4CAF50" stroke-width="1"/><text x="348.84208611683925" y="150.90083158279685" font-size="10" fill="white" text-anchor="middle" dominant-baseline="middle">2 Bedroo</text><polygon points="343.58072767890644,82.638415469964 274.36944211217497,27.227509477303556 288.12912744888894,166.3438750579209 309.04157699723385,183.08648815217327" fill="#4CAF50" fill-opacity="0.7" stroke="#4CAF50" stroke-width="1"/><text x="303.78021855930103" y="114.82407203934042" font-size="10" fill="white" text-anchor="middle" dominant-baseline="middle">3 Bedroo</text><polygon points="258.3776012452405,29.772347614382625 200.52427140392274,110.95269895612967 251.36423852376487,211.9213531146546 281.74431640740323,169.29173433302242" fill="#4CAF50" fill-opacity="0.7" stroke="#4CAF50" stroke-width="1"/><text x="248.00260689508283" y="130.48453350454736" font-size="10" fill="white" text-anchor="middle" dominant-baseline="middle">3 Bedroo</text><polygon points="200.52427140392274,110.95269895612967 142.67094156260498,192.13305029787682 220.98416064012656,254.5509718962868 251.36423852376487,211.9213531146546" fill="#4CAF50" fill-opacity="0.7" stroke="#4CAF50" stroke-width="1"/><text x="203.8859030326048" y="192.38951856623697" font-size="10" fill="white" text-anchor="middle" dominant-baseline="middle">Studio +</text><polygon points="142.67094156260498,192.13305029787682 84.81761172128725,273.313401639624 190.6040827564882,297.180590677919 220.98416064012656,254.5509718962868" fill="#4CAF50" fill-opacity="0.7" stroke="#4CAF50" stroke-width="1"/><text x="159.76919917012674" y="254.29450362792664" font-size="10" fill="white" text-anchor="middle" dominant-baseline="middle">1 Bedroo</text><polygon points="84.81761172128725,273.313401639624 26.964281879969548,354.4937529813711 160.2240048728499,339.81020945955123 190.6040827564882,297.180590677919" fill="#4CAF50" fill-opacity="0.7" stroke="#4CAF50" stroke-width="1"/><text x="115.65249530764873" y="316.1994886896163" font-size="10" fill="white" text-anchor="middle" dominant-baseline="middle">2 Bedroo</text><polygon points="29.402162745389774,371.7225968043764 102.15332426551356,429.4187646689128 197.25414956240806,377.2093879510386 161.22341856672128,348.6347911972249" fill="#4CAF50" fill-opacity="0.7" stroke="#4CAF50" stroke-width="1"/><text x="122.50826378500815" y="381.74638515538817" font-size="10" fill="white" text-anchor="middle" dominant-baseline="middle">2 Bedroo</text><polygon points="102.15332426551356,429.4187646689128 174.90448578563732,487.1149325334492 233.28488055809484,405.7839847048522 197.25414956240806,377.2093879510386" fill="#4CAF50" fill-opacity="0.7" stroke="#4CAF50" stroke-width="1"/><text x="176.89921004291347" y="424.88176746456315" font-size="10" fill="white" text-anchor="middle" dominant-baseline="middle">2 Bedroo</text><polygon points="174.90448578563732,487.1149325334492 247.6556473057611,544.8111003979857 269.31561155378165,434.3585814586658 233.28488055809484,405.7839847048522" fill="#4CAF50" fill-opacity="0.7" stroke="#4CAF50" stroke-width="1"/><text x="231.29015630081872" y="468.0171497737382" font-size="10" fill="white" text-anchor="middle" dominant-baseline="middle">3 Bedroo</text><polygon points="247.6556473057611,544.8111003979857 320.40680882588487,602.5072682625221 305.34634254946843,462.93317821247945 269.31561155378165,434.3585814586658" fill="#4CAF50" fill-opacity="0.7" stroke="#4CAF50" stroke-width="1"/><text x="285.681102558724" y="511.15253208291324" font-size="10" fill="white" text-anchor="middle" dominant-baseline="middle">3 Bedroo</text><rect x="271.8221064172949" y="198.7657785633711" width="40" height="48" fill="#9E9E9E" fill-opacity="0.7" stroke="#9E9E9E" stroke-width="1"/><text x="291.8221064172949" y="222.7657785633711" font-size="10" fill="white" text-anchor="middle" dominant-baseline="middle">Stair 1</text><rect x="230.03641513747783" y="257.39986424966645" width="40" height="48" fill="#9E9E9E" fill-opacity="0.7" stroke="#9E9E9E" stroke-width="1"/><text x="250.03641513747783" y="281.39986424966645" font-size="10" fill="white" text-anchor="middle" dominant-baseline="middle">Stair 2</text><rect x="288.2182155109971" y="402.13672541759684" width="32" height="32" fill="#9E9E9E" fill-opacity="0.7" stroke="#9E9E9E" stroke-width="1"/><text x="304.2182155109971" y="418.13672541759684" font-size="8" fill="white" text-anchor="middle" dominant-baseline="middle">Elevator</text><rect x="197.2214738122366" y="312.1090874204798" width="20" height="20" fill="#FF9800" fill-opacity="0.7" stroke="#FF9800" stroke-width="1"/><text x="207.2214738122366" y="322.1090874204798" font-size="5" fill="white" text-anchor="middle" dominant-baseline="middle">Trash</text><rect x="206.27512814972476" y="346.55774103346226" width="20" height="20" fill="#FF9800" fill-opacity="0.7" stroke="#FF9800" stroke-width="1"/><text x="216.27512814972476" y="356.55774103346226" font-size="5" fill="white" text-anchor="middle" dominant-baseline="middle">Mech</text><rect x="237.61567063435737" y="371.4127283955379" width="20" height="20" fill="#FF9800" fill-opacity="0.7" stroke="#FF9800" stroke-width="1"/><text x="247.61567063435737" y="381.4127283955379" font-size="5" fill="white" text-anchor="middle" dominant-baseline="middle">Stor</text><rect x="322.7934786330244" y="367.24162666230256" width="20" height="20" fill="#FF9800" fill-opacity="0.7" stroke="#FF9800" stroke-width="1"/><text x="332.7934786330244" y="377.24162666230256" font-size="5" fill="white" text-anchor="middle" dominant-baseline="middle">Elec</text><text x="10" y="15" font-size="12" fill="white">Floor 1 (RESIDENTIAL_TYPICAL)</text></svg>